<?xml version="1.0" encoding="utf-8"?>
<!-- Generator: Adobe Illustrator 18.1.1, SVG Export Plug-In . SVG Version: 6.00 Build 0)  -->
<svg version="1.1" id="Layer_1" xmlns="http://www.w3.org/2000/svg" xmlns:xlink="http://www.w3.org/1999/xlink" x="0px" y="0px"
	 viewBox="0 0 795.2 350.3" enable-background="new 0 0 795.2 350.3" xml:space="preserve">
<path fill="#F02314" d="M433.3,209.8c-4.2,4.2-8.4,7.8-14.7,8.2c-7.2,0.5-9.7-4.8-12.4-10.6c-1.9,4.4-3.4,7.9-5,11.4
	c-1.9,4.2-4.7,7.8-8.3,10.6c-10.7,8.4-23.8,4.5-29-8.6c-1.8-4.5-3.2-9.1-4-13.8c-0.3-2-1-3.9-1.7-7c-2.8,5-4.4,9.3-7,13.1
	c-2.7,4-5.4,7.9-9.5,10.7c-12.5,8.4-26.4,4.6-32.7-9.1c-2.6-5.7-3.9-11.8-5.5-17.8c-0.2-0.9-0.2-1.8-1.2-2.6
	c-2.5,1.2-3.6,3.8-5.3,5.8c-4.2,5-8.3,9.9-14.2,13.1c-9,4.8-19.7,4.1-25.6-5.5c-0.2-0.3-0.5-0.5-0.8-0.8c-1.8,0.3-1.9,2-2.5,3.2
	c-1.9,3.6-4.5,6.6-8.3,8c-9,3.3-14.3,1.8-16.6-8.4c-3.5-15.4-3.2-31,1.6-46.2c1.9-6.1,6.6-9.3,12.5-9.4c4.8-0.1,8.6-2.1,12.8-3.4
	c4.3-1.4,5.5-0.9,5.7,3.5c0.3,8.6,1.1,17.1,0.8,25.7c-0.3,9.2,2.1,18,7.4,25.7c3.5,5,7.3,5.3,11.7,1.2c8.5-7.8,14.1-17.6,18.6-28
	c1.9-4.4,0.4-9.3,0-13.9c-1.7-18.4-1.3-36.8-1-55.2c0.2-8.4,0.3-16.9,0.1-25.3c-0.1-3.2-1-5.3-3.5-7.2c-9.4-7.1-17.8-15.2-24.4-25
	c-2.6-3.9-5.4-8-4.8-13.3c6.1-0.6,10.2,1,13.6,6.5c4.8,7.6,11.8,13.7,18.8,20.1c1.1-2.3,1.1-4.4,1.3-6.3c0.5-8.1,1-16.2,1.4-24.3
	c0.1-2.7-0.2-5.4-0.4-8.1c-0.1-1.4,0-2.7,1.4-3.3c3.2-1.5,6.8-1.4,10.2-1.9c1.2-0.2,1.8,1,2,2.1c1,6.1,1.8,12.3,3,18.4
	c1.4,7.5,1.2,15.2,2.5,22.7c0.6,3.8,0.6,7.8,0.4,11.6c-0.2,3.5,1.4,5.6,4.2,7.2c7.2,4.1,14.5,8,22.6,10.3c2.6,0.7,5,1.8,8.2,2.9
	c0.3-4.6,0.6-8.7,0.7-12.7c0.1-11,1.9-21.9,1.4-32.9c-0.1-2.5,0.6-4.7,2.8-5.5c2.7-1,5.7-2.1,8.7-0.8c1.1,0.5,1.3,1.5,1.4,2.6
	c1.7,12,2.9,24,2.4,36.1c-0.2,4.8,0,9.6-0.5,14.3c-0.2,2.9,0.7,4.6,3.7,5.3c8,1.9,15.8,4.1,23.8,5.9c16.4,3.9,33.1,6.4,50,7
	c22.1,0.7,43.5-3,64.4-10.2c2.3-0.8,4.6-1.7,7-2.4c3.3-1.1,4.4-3.6,4.9-6.8c3.8-25.3,7.5-50.6,13.8-75.5c1.2-4.9,3-9.7,4.9-14.4
	c2.1-5.3,5.2-7,10.9-6.7c7.3,0.5,12.5,4.4,15.9,10.5c6,10.8,7.8,22.7,6.7,35c-0.7,8.9-1.8,17.8-5.4,26.2
	c-6.4,15.1-16.5,26.6-31.1,34.1c-2.7,1.4-4,3.2-4.6,6.1c-2,9.5-4.1,19-6.2,28.5c-0.6,2.7-0.5,5.4,0.2,8.1c3.9,14.8,8,29.5,14.5,43.5
	c1.4,2.9,7.1,4.2,10.2,1.8c10.2-7.6,17.6-17.5,21.3-29.5c4-12.9,8.1-25.8,12.6-38.5c1.3-3.8,3.6-5.3,7.3-4.5
	c2.6,0.5,4.2-0.2,6.2-1.9c6-5,16.9-1.8,22.1,4.2c5.1,5.9,7.8,12.8,8.1,20.6c0.1,1.7-0.3,3.6,1.2,5.5c4.2-2.2,6.3-6.3,9-9.8
	c5-6.4,5.9-14.3,7.6-21.9c1-4.3,2.1-8.6,3.3-12.8c0.7-2.4,0.9-5.6,4.7-4.9c3.7,0.6,6.9,4.4,6.3,7.7c-0.7,4-1.9,7.8-2.7,11.8
	c-2,9.4-4.8,18.7-5.5,28.2c-0.8,10.4-0.5,21.1,3.8,31c3.1,7,7.2,8.5,13.9,5.1c6.8-3.5,11.3-9.1,14.7-15.6c2.8-5.3,4.5-11.1,6.3-16.8
	c1.7-5.4,0.4-10.7-0.4-16.1c-1.2-9.3-1.7-18.6-0.6-28c0.2-1.4-0.6-3.6,1.3-4.1c2-0.6,4.1,0,5.8,1.4c3.9,3.4,4.9,8.2,5.6,12.9
	c1.1,7.2,0.9,14.5-0.1,21.7c-1.4,10,5.2,23.1,14,27.7c0.8,0.4,1.5,1.1,2.5,0.7c0.9-1.2,0.1-2.2-0.3-3.3c-4.3-14.2-1.4-27.4,5.3-40.1
	c3.1-5.9,6.8-11.4,12.2-15.5c5.9-4.3,9.9-4.4,16-0.4c10,6.6,14.5,16.2,13.9,28.2c-0.6,12.1-3.6,23.3-12.4,32.3
	c-4.7,4.8-10.4,7.7-17,8.8c-3.1,0.5-3.5,1.4-2,4c6.5,11.2,16.5,17.5,28.8,21c5.7,1.6,11.1,1.8,16.7-0.6c2.6-1.1,4.2-3,5.9-4.9
	c0.8-0.9,1.5-1.9,2.9-1.4c1.3,0.5,0.8,1.7,0.8,2.7c-0.1,5.7-4.4,10.2-10.9,11.6c-4.7,1-9.5,0.4-14-0.7
	c-17.4-4.4-30.9-14.3-40.5-29.5c-1.1-1.7-2.3-2.9-4.3-3.7c-4.2-1.8-8-4.3-11.5-7.2c-3.4-2.9-6.3-6.1-9.2-9.8c-2.5,2.7-2.8,6-3.9,8.9
	c-3.9,9.8-9.8,18-19.4,23c-10.1,5.2-19.6,0.8-26.7-7.9c-4.8-5.9-6.6-13.1-7.3-20.6c-0.3-3-0.6-6.1-0.9-9.4c-2.7,0.6-3.8,2.5-5.3,3.8
	c-2,1.6-3.9,3.4-6.2,4.7c-1.9,1-3,2.7-3.4,4.9c-1.9,8.4-6.6,15.2-12.9,20.9c-4.6,4.1-9.6,7.4-15.8,8.7c-9,1.9-16.3-0.8-22.3-7.5
	c-0.7-0.8-1.3-1.6-1.8-2.3c-2.3,0.5-3,2.2-4.1,3.4c-5.2,5.5-10.9,10-18.5,11.4c-8.7,1.7-15.5-1.7-21.1-8c-4.6-5.1-6.9-11.5-9.3-17.9
	c-0.5-1.3-0.7-2.8-1.9-4c-1.5,1.3-1.5,3.2-2,4.8c-2.7,9.5-4.7,19.2-9.2,28.1c-4.1,8.1-9.8,13-18.6,11.7c-3.1-0.4-5.1-2.1-6.4-4.9
	c-5.8-12.9-6-26.5-4.1-40c1.2-8.9,3.7-17.7,9.1-25.4c5.7-8.2,13.2-12.3,23.2-11.4c3,0.3,4.2-0.7,4.7-3.5c1-5.5,3.1-10.9,2.8-17.3
	c-3.9,0.9-7.5,1.5-11,2.5c-15.9,4.7-32.2,6.7-48.7,7.5c-20.5,0.9-40.7-1.5-60.7-5.4c-8.8-1.7-17.7-3.5-26.5-5.4
	c-3.3-0.7-4.6,0.1-4.9,3.7c-1.1,14.9-2.6,29.7-3.8,44.5c-0.7,8.1,0.7,16.1,1.2,24.1c0.4,5.3,1,10.6,1.8,15.8
	c1.2,8.4,2.9,16.6,9.1,23.1c3.6,3.8,5.1,3.8,8.4-0.1c5.1-6.2,7.3-13.7,9.1-21.3c4.3-18.9,6.3-38.1,6-57.5c-0.1-4.2,2.8-6.5,8.4-6.5
	c3.7,0,3.9,3.1,3.9,5.6c0,10.5-0.7,21-0.1,31.5c0.5,9.7-0.5,19.5,2.1,29.1c0.7,2.4,1.2,5.4,3.9,5.8c2.8,0.5,4-2.6,5.2-4.6
	c6.3-9.9,8-21.3,9.4-32.7c0.6-5,0.7-10.1,1.1-15.1c0.4-4.9,6.8-8.1,10.9-5.5c1.6,1,1.5,2.7,1.4,4.2c-1.1,11.5-1,23-1.7,34.5
	c-0.9,15.3-1.9,30.5-3.1,45.8c-1.3,15.2-2.2,30.5-4.8,45.6c-2.4,13.8-4.6,27.7-9,40.9c-3,9.2-6.9,18.7-16.1,23.6
	c-12.5,6.6-21.4,2.2-27.1-10.2c-5.8-12.6-4.2-25.6-1.1-38.5c3.1-12.8,9-24,19-32.8c3.3-2.9,6.7-5.7,10.2-8.4
	c1.7-1.3,4.2-2.5,5.6-0.7c1.5,1.9-0.6,4-2.2,5.1c-11.7,8.2-17.7,20.4-22,33.2c-4.1,12.1-4.6,24.7-0.2,37.1c1.7,5,5,8.8,9.3,11.6
	c2,1.3,3.9,1.1,6-0.6c4.6-3.8,5.5-9.2,7.2-14.3c5.9-17.7,8.3-36.2,10.7-54.6c2.7-20.5,3.3-41.2,4.2-61.8
	C434.1,211.7,434.5,210.7,433.3,209.8z M322.6,94.7c-0.9,6.2-0.6,12.1-0.8,18.1c-0.4,18.2-2.8,36.1-7.2,53.8
	c-1.7,6.9-2.4,13.6-1.1,20.7c2.1,11.3,3.9,22.5,12.2,31.4c3.2,3.4,7.6,4.1,11.1,1.1c1.3-1.2,2.5-2.7,3.5-4.2
	c9.9-15.1,14.6-32,15.2-49.6c0.5-18.5-0.7-37.1,0.1-55.7c0.1-2.7-0.9-3.9-3.5-4.7c-5-1.6-9.9-3.7-15-5.3
	C332.3,98.6,328,95.8,322.6,94.7z M733.1,156.8c0,4.1,0.6,7.3,1.3,10.5c0.6,2.8,2,3.3,4.4,2.6c8.5-2.3,15.1-7,19.2-15.1
	c4.5-8.8,6.1-18.1,6.2-27.8c0.1-4.4-1.8-8.8-5.9-10.7c-3.8-1.7-7.1,1.2-10.1,3.5c-0.9,0.7-1.8,1.6-2.4,2.5
	C738.3,132.9,731.9,143.9,733.1,156.8z M597.1,145.2c-2.8,2.6-2.7,5.8-3.7,8.5c-3.3,8.9-6.4,17.7-5.2,27.5
	c0.9,7.2,4.9,10.1,11.8,7.8c10.7-3.7,17-11.8,21.6-21.6c1.2-2.5,0-3.2-2.3-3.6c-7.6-1.4-13.7-5.3-18.1-11.8
	C599.9,150,598.6,147.7,597.1,145.2z M558.2,13.8c-4.8,4.8-18.4,68-16.3,75.8c0.9,0.1,1.3-0.7,1.9-1.2c7.3-6.6,11.9-15,15.2-24.1
	c5.3-14.7,7.4-29.7,2.7-45C561,17.1,560.3,15,558.2,13.8z M499.1,204c1.4-0.3,1.7-1.3,2.3-2.1c2.8-3.9,3.2-8.5,4.4-12.9
	c2.8-10.4,5.9-20.9,8.4-31.4c1-4.4,3.2-8.9,0.5-13.5c-0.8-1.4-1.6-2.9-3.5-2.6c-1.8,0.4-3.7,0.7-4.7,2.8c-2.1,4.3-4.7,8.3-6.3,12.9
	c-4.6,13.4-6.8,27.1-4.2,41.2C496.5,200.7,497.6,202.5,499.1,204z M242.8,212c0.7-1,1.1-1.5,1.4-2c7.5-13,6.3-26.9,4.5-40.9
	c-0.1-1-0.8-1.9-1.4-2.7c-1.2-1.5-1.9-4-4.1-3.6c-2.3,0.4-2.3,3.1-2.8,5c-2.8,11.1-2.6,22.3-1.7,33.6
	C238.9,205,239.4,208.9,242.8,212z M624.8,146.9c-0.1-2-0.3-4.8-0.7-7.6c-0.4-2.9-1.7-5.7-1.2-9c0.4-2.2-2-4.3-4.4-5.2
	c-1.8-0.7-3.6-1.2-5.4,0.5c-8,7.1-8.1,21.7-0.1,28.9c2,1.8,8.5,3.2,10.3,1.9c2.5-1.8,1.6-4.7,1.7-7.2
	C625,148.7,624.9,148.2,624.8,146.9z"/>
<path fill="#F12314" d="M185.2,178c-3,1.2-6.1,2.5-9.2,3.7c-1.1,0.5-1.4,1.3-1.4,2.5c-0.5,20.4-1,40.7-1.6,61.1
	c-0.1,5.9-4.7,10.2-10.5,10c-1.3-0.1-2.4-1-2.6-2.3c-0.6-3.2,0-6.4,0.1-9.6c0.3-19.1,0.5-38.2,0.7-57.3c0-1.8,0.2-3.7-2.1-4.5
	c-7.5-2.4-9.4-8.6-9.7-15.3c-0.6-13.5,1.9-26.1,11.6-36.4c1-1,1.3-2.1,1.3-3.5c0.3-23.9,0.6-47.8,0.9-71.7c0-2.5-0.3-5.1-0.5-8.7
	c-4.3,4.4-7.7,8.1-10.5,12.2c-4.4,6.6-8.4,13.4-10.9,21c-1.8,5.6-7.9,8.5-13.8,7.1c-2.2-0.5-1.6-2-1.3-3.4
	c1.4-5.7,3.5-11.2,6.4-16.3c8.4-14.7,18.7-27.8,33-37.3c11.1-7.4,23.6-9.7,36.8-9.3c7.6,0.2,14.7,1.8,20.9,6.3
	c8.9,6.4,11.1,16,11.8,26.1c1.4,18.6,0.4,37.1-4.2,55.3c-4,15.8-10.2,30.8-19.6,44.3c-3.8,5.4-7,11.3-12.4,15.4
	c-1.3,1-1.3,2.4-1.1,3.9c3,19.5,4.5,39.2,7,58.7c1,8,2.1,15.9,5.4,23.4c1.2,2.7,2.9,5,5,6.9c4,3.5,8.1,3.8,12.5,0.9
	c7.7-5.1,13-11.9,14.7-21.1c0.3-1.8,0.7-3.7,2.8-3.5c2.1,0.2,3.3,1.8,3.5,4c0.4,4.4-0.7,8.4-3.2,12.1c-5.2,7.8-12,13.9-21,16.4
	c-13.5,3.8-22.1-1-26.7-14.3c-3.4-9.7-4.8-19.9-5.9-30.2c-1.5-14.6-3-29.2-5.2-43.7C186.2,180,186.3,178.8,185.2,178z M195.3,157.8
	c0.6-0.7,0.9-1.8,1.5-2.5c8.1-10.8,13.8-22.9,18.4-35.5c5.7-15.6,7.9-32,8.5-48.5c0.4-11.2-0.4-22.3-4.9-32.9
	c-4.3-10-14.8-15.5-24.7-13.1c-8.2,2-15.6,5.8-22.3,10.7c-2.7,2-5.4,4.2-7.4,7.8c2.8-0.2,4.7-0.3,6.6-0.4c3.7-0.1,6,1.1,6.3,5.4
	c0.3,4.8-0.8,9.6-0.6,14.3c0.4,12.3,0.1,24.6-0.3,37c-0.2,6.5-0.1,13-0.8,19.4c-0.3,3-0.4,5,3,5.9c1.9,0.5,3.6,1.7,4.6,3.4
	c2.3,4.1,4.7,8.1,6.2,12.5C191.4,146.9,193.4,152.4,195.3,157.8z M175,143.4v32c3-0.8,5.2-2.3,7.3-4c1.1-0.9,2.2-1.9,1.9-3.6
	C182.7,159.2,179.8,151,175,143.4z"/>
<path fill="#F12415" d="M0,144.9c12.8-6.6,26.8-9.4,40.5-13.4c2.3-0.7,3-1.8,3-4.1c0.3-22.1,0.8-44.1,0.2-66.2c-0.1-2-1.2-4.7,1-5.7
	c3.6-1.6,7.1-4.2,11.3-3.3c2.4,0.5,1.7,2.9,1.8,4.6c0.7,16.8,0.4,33.5,0,50.3c-0.2,6.3,0,12.7,0,19.5c5-1,9.6-1.8,14.1-2.9
	c5.2-1.2,10.3-2.8,15.4-4.1c2.6-0.6,3.5-1.9,3.4-4.6c-0.9-15.7-1.6-31.4-2.3-47.1c-0.2-4,3.6-7,9-7.2c4.2-0.2,5.1,1.1,5.7,5.9
	c1.6,14.5,1.9,29,2.1,43.6c0,3.7,1.1,4.8,4.9,4c10.3-2.2,20.7-4.2,31.1-6c2.3-0.4,6.1-1.5,6.4,2c0.3,2.9-2.9,3.8-5.8,4.4
	c-11.4,2.5-22.7,5.3-34,7.9c-1.8,0.4-2.5,1.5-2.5,3.3c0,10,0,20,0,30c0,2.2,0.8,3.1,3,2.8c8.2-1,16.3-2.6,24.6-2.7
	c3.2-0.1,6.5-1.3,9.9-0.9c1.5,0.2,3.6,0.5,3.6,2.8c0,2.1-1.9,2.6-3.4,3.2c-5.4,2.4-11.3,2.9-17,3.7c-5.6,0.8-11.3,1.5-17,2
	c-2.5,0.3-3.7,1.4-3.8,3.9c-0.3,3.8,0.4,7.5,0.5,11.3c0.4,17.8,0.4,35.6,0.9,53.4c0.2,7.2-3.6,9.7-9.9,11.8
	c-2.3,0.8-4.4-0.9-5.5-2.1c-2.9-2.9-5.3-6.6-4.9-11.3c0.2-1.9,1.7-5.9,4.6-7.4c0.5-0.3,0.7-1.6,0.7-2.5c0.2-17.9-0.5-35.8-1.1-53.9
	c-4.1-0.6-7.8,1-11.6,1.4c-5.7,0.7-11.3,1.8-16.9,2.6c-2.8,0.4-3.8,1.5-3.7,4.6c0.3,18.6,0.8,37.2,0.1,55.7
	c-0.2,4.4-1.5,8.4-3.2,12.3c-1.1,2.3-7.9,4.7-10,3.6c-1.7-0.9-1.1-2.5-1-3.8c1.1-12.2,1-24.4,0.6-36.6c-0.4-9.7-0.1-19.4-0.2-29.1
	c-0.1-3.5-1.6-4-4.4-3.4c-9.5,1.9-19,3.7-28.5,5.8c-3.8,0.8-7.7,0.9-11.5,1.6c0-1,0-2.1,0-3.1c12.6-5.7,25.9-8.9,39.5-11
	c3.1-0.5,4.4-1.6,4.2-5c-0.3-7.2-0.1-14.5-0.3-21.8c0-1.7,0.3-3.6-1.1-5.5c-5.2,0.7-10.2,2.6-15.2,4c-9,2.6-18,4.8-27.2,6.4
	C0,147.5,0,146.2,0,144.9z M90.4,126.3c-10.8,2.6-21,5-31.1,7.4c-1.4,0.3-1.7,1.4-1.7,2.7c0.1,9.2,0.2,18.4,0.2,27.6
	c0,2.1,0.8,3.1,3.1,2.7c8.9-1.7,17.8-3.3,26.7-4.9c2.1-0.4,3.1-1.3,3-3.6c-0.2-4.4-0.2-8.8-0.2-13.2C90.4,139,90.4,133.1,90.4,126.3
	z"/>
</svg>
