<?xml version="1.0" encoding="utf-8"?>
<!-- Generator: Adobe Illustrator 18.1.1, SVG Export Plug-In . SVG Version: 6.00 Build 0)  -->
<svg version="1.1" id="Layer_1" xmlns="http://www.w3.org/2000/svg" xmlns:xlink="http://www.w3.org/1999/xlink" x="0px" y="0px"
	 viewBox="0 0 800.6 354.3" enable-background="new 0 0 800.6 354.3" xml:space="preserve">
<g>
	<path fill="#FEFDFD" d="M0.8,149.8c0-49.7,0-99.4,0-149c266.6,0,533.2,0,799.8,0c0,117.8,0,235.7,0,353.5c-266.6,0-533.2,0-799.8,0
		c0-54.9,0-109.8,0-164.6c3.8-0.7,7.7-0.7,11.5-1.6c9.5-2.1,19-3.9,28.5-5.8c2.7-0.5,4.3-0.1,4.4,3.4c0.2,9.7-0.1,19.4,0.2,29.1
		c0.5,12.2,0.6,24.4-0.6,36.6c-0.1,1.3-0.7,3,1,3.8c2.1,1.1,9-1.2,10-3.6c1.8-3.9,3.1-7.9,3.2-12.3c0.7-18.6,0.2-37.2-0.1-55.7
		c0-3.1,1-4.2,3.7-4.6c5.6-0.8,11.2-1.9,16.9-2.6c3.8-0.4,7.4-2,11.6-1.4c0.6,18.1,1.3,36,1.1,53.9c0,0.9-0.2,2.2-0.7,2.5
		c-2.9,1.6-2,4.3-1.5,6.2c1.1,3.9,1.6,7.9,2.5,11.8c0.7,3.1,2.5,3.6,4.8,2.8c6.4-2.2,10.1-4.6,9.9-11.8c-0.5-17.8-0.5-35.6-0.9-53.4
		c-0.1-3.7-0.7-7.5-0.5-11.3c0.2-2.5,1.3-3.7,3.8-3.9c5.7-0.6,11.3-1.2,17-2c5.7-0.9,11.6-1.3,17-3.7c1.5-0.7,3.4-1.1,3.4-3.2
		c0-2.3-2.2-2.6-3.6-2.8c-3.3-0.5-6.7,0.8-9.9,0.9c-8.3,0.2-16.4,1.8-24.6,2.7c-2.2,0.3-3-0.6-3-2.8c0.1-10,0.1-20,0-30
		c0-1.9,0.7-2.9,2.5-3.3c11.3-2.7,22.6-5.5,34-7.9c2.9-0.6,6.1-1.6,5.8-4.4c-0.3-3.5-4.1-2.4-6.4-2c-10.4,1.8-20.8,3.8-31.1,6
		c-3.7,0.8-4.8-0.3-4.9-4c-0.1-14.5-0.4-29.1-2.1-43.6c-0.5-4.8-1.5-6.2-5.7-5.9c-5.4,0.3-9.2,3.3-9,7.2c0.8,15.7,1.5,31.4,2.3,47.1
		c0.1,2.7-0.7,4-3.4,4.6c-5.2,1.2-10.3,2.8-15.4,4.1c-4.5,1.1-9.1,1.9-14.1,2.9c0-6.8-0.1-13.2,0-19.5c0.4-16.8,0.7-33.5,0-50.3
		c-0.1-1.7,0.6-4.1-1.8-4.6c-4.3-1-7.8,1.7-11.3,3.3c-2.2,1-1.1,3.8-1,5.7c0.6,22.1,0,44.1-0.2,66.2c0,2.3-0.7,3.4-3,4.1
		C27.6,140.4,13.6,143.2,0.8,149.8z M436.6,212.2c1.2,0.9,0.9,1.8,0.8,2.7c-0.8,20.6-1.5,41.3-4.2,61.8
		c-2.4,18.4-4.9,36.9-10.7,54.6c-1.7,5.1-2.6,10.5-7.2,14.3c-2.1,1.7-3.9,1.9-6,0.6c-4.3-2.9-7.6-6.6-9.3-11.6
		c-4.3-12.4-3.8-25.1,0.2-37.1c4.3-12.8,10.3-25,22-33.2c1.6-1.1,3.6-3.3,2.2-5.1c-1.4-1.8-3.9-0.6-5.6,0.7
		c-3.5,2.7-6.9,5.5-10.2,8.4c-10,8.8-15.9,20-19,32.8c-3.2,12.9-4.8,26,1.1,38.5c5.7,12.3,14.5,16.8,27.1,10.2
		c9.2-4.9,13.1-14.4,16.1-23.6c4.3-13.3,6.6-27.1,9-40.9c2.6-15.1,3.6-30.4,4.8-45.6c1.3-15.2,2.2-30.5,3.1-45.8
		c0.7-11.5,0.6-23,1.7-34.5c0.2-1.5,0.2-3.2-1.4-4.2c-4.1-2.6-10.5,0.6-10.9,5.5c-0.4,5-0.5,10.1-1.1,15.1
		c-1.4,11.4-3.1,22.7-9.4,32.7c-1.2,2-2.4,5-5.2,4.6c-2.6-0.4-3.2-3.4-3.9-5.8c-2.6-9.5-1.6-19.4-2.1-29.1
		c-0.6-10.5,0.2-21,0.1-31.5c0-2.5-0.2-5.6-3.9-5.6c-5.5,0-8.4,2.3-8.4,6.5c0.3,19.4-1.7,38.6-6,57.5c-1.7,7.6-3.9,15.1-9.1,21.3
		c-3.3,3.9-4.7,3.9-8.4,0.1c-6.2-6.5-7.9-14.7-9.1-23.1c-0.8-5.3-1.5-10.5-1.8-15.8c-0.5-8-1.9-16-1.2-24.1
		c1.2-14.9,2.7-29.7,3.8-44.5c0.3-3.6,1.5-4.4,4.9-3.7c8.8,1.9,17.7,3.6,26.5,5.4c20,3.9,40.2,6.3,60.7,5.4
		c16.5-0.7,32.8-2.8,48.7-7.5c3.5-1,7.1-1.7,11-2.5c0.3,6.4-1.8,11.7-2.8,17.3c-0.5,2.8-1.7,3.8-4.7,3.5c-10-1-17.4,3.2-23.2,11.4
		c-5.4,7.7-7.9,16.5-9.1,25.4c-1.9,13.5-1.7,27.1,4.1,40c1.3,2.9,3.3,4.5,6.4,4.9c8.8,1.3,14.5-3.6,18.6-11.7
		c4.5-8.8,6.4-18.6,9.2-28.1c0.5-1.6,0.5-3.5,2-4.8c1.2,1.2,1.5,2.7,1.9,4c2.3,6.4,4.6,12.8,9.3,17.9c5.6,6.3,12.4,9.7,21.1,8
		c7.7-1.5,13.4-6,18.5-11.4c1.1-1.2,1.8-2.9,4.1-3.4c0.5,0.7,1.1,1.5,1.8,2.3c6,6.7,13.3,9.4,22.3,7.5c6.2-1.3,11.3-4.6,15.8-8.7
		c6.3-5.6,11-12.4,12.9-20.9c0.5-2.2,1.5-3.9,3.4-4.9c2.3-1.2,4.2-3.1,6.2-4.7c1.6-1.2,2.6-3.2,5.3-3.8c0.3,3.3,0.6,6.3,0.9,9.4
		c0.7,7.5,2.5,14.7,7.3,20.6c7.1,8.6,16.6,13.1,26.7,7.9c9.6-4.9,15.5-13.2,19.4-23c1.2-2.9,1.5-6.2,3.9-8.9c2.9,3.7,5.9,7,9.2,9.8
		c3.5,3,7.3,5.5,11.5,7.2c1.9,0.8,3.2,2,4.3,3.7c9.6,15.2,23.1,25.1,40.5,29.5c4.5,1.2,9.3,1.8,14,0.7c6.6-1.4,10.8-6,10.9-11.6
		c0-1,0.5-2.2-0.8-2.7c-1.4-0.5-2,0.5-2.9,1.4c-1.7,1.9-3.4,3.7-5.9,4.9c-5.6,2.5-10.9,2.2-16.7,0.6c-12.2-3.4-22.2-9.8-28.8-21
		c-1.5-2.6-1.1-3.5,2-4c6.6-1,12.2-3.9,17-8.8c8.8-9,11.7-20.2,12.4-32.3c0.6-12-3.9-21.7-13.9-28.2c-6.1-4-10.2-3.9-16,0.4
		c-5.5,4-9.1,9.6-12.2,15.5c-6.8,12.7-9.7,25.9-5.3,40.1c0.3,1,1.2,2.1,0.3,3.3c-1,0.4-1.8-0.3-2.5-0.7c-8.8-4.6-15.4-17.7-14-27.7
		c1-7.2,1.2-14.5,0.1-21.7c-0.7-4.7-1.7-9.5-5.6-12.9c-1.7-1.5-3.8-2-5.8-1.4c-1.9,0.6-1.1,2.7-1.3,4.1c-1.2,9.3-0.7,18.7,0.6,28
		c0.7,5.4,2.1,10.7,0.4,16.1c-1.8,5.7-3.6,11.4-6.3,16.8c-3.4,6.6-7.9,12.2-14.7,15.6c-6.8,3.4-10.8,1.9-13.9-5.1
		c-4.3-10-4.6-20.6-3.8-31c0.7-9.5,3.6-18.8,5.5-28.2c0.8-3.9,2-7.8,2.7-11.8c0.6-3.3-2.6-7.1-6.3-7.7c-3.8-0.6-4,2.5-4.7,4.9
		c-1.2,4.3-2.3,8.5-3.3,12.8c-1.7,7.6-2.6,15.5-7.6,21.9c-2.7,3.5-4.7,7.6-9,9.8c-1.5-1.9-1.1-3.8-1.2-5.5c-0.4-7.8-3-14.7-8.1-20.6
		c-5.2-5.9-16.1-9.2-22.1-4.2c-2,1.7-3.6,2.5-6.2,1.9c-3.7-0.8-6,0.8-7.3,4.5c-4.5,12.7-8.6,25.6-12.6,38.5
		c-3.7,12-11.1,21.9-21.3,29.5c-3.1,2.3-8.8,1.1-10.2-1.8c-6.5-13.9-10.6-28.7-14.5-43.5c-0.7-2.7-0.8-5.3-0.2-8.1
		c2.1-9.5,4.3-19,6.2-28.5c0.6-2.9,1.9-4.7,4.6-6.1c14.5-7.5,24.7-19.1,31.1-34.1c3.6-8.4,4.7-17.2,5.4-26.2c1-12.3-0.7-24.1-6.7-35
		c-3.4-6.1-8.6-10-15.9-10.5c-5.7-0.4-8.8,1.4-10.9,6.7c-1.8,4.7-3.6,9.5-4.9,14.4c-6.3,24.8-10,50.2-13.8,75.5
		c-0.5,3.2-1.5,5.7-4.9,6.8c-2.3,0.7-4.6,1.6-7,2.4c-20.9,7.2-42.3,10.9-64.4,10.2c-16.9-0.6-33.6-3.1-50-7
		c-7.9-1.9-15.8-4.1-23.8-5.9c-3.1-0.7-4-2.5-3.7-5.3c0.4-4.8,0.3-9.6,0.5-14.3c0.5-12.2-0.7-24.1-2.4-36.1
		c-0.2-1.1-0.4-2.1-1.4-2.6c-3-1.3-6-0.2-8.7,0.8c-2.2,0.8-2.9,3-2.8,5.5c0.5,11-1.3,21.9-1.4,32.9c0,4.1-0.4,8.1-0.7,12.7
		c-3.1-1.1-5.6-2.2-8.2-2.9c-8.1-2.3-15.3-6.2-22.6-10.3c-2.8-1.6-4.4-3.7-4.2-7.2c0.2-3.9,0.2-7.8-0.4-11.6
		c-1.2-7.5-1-15.2-2.5-22.7c-1.2-6.1-2-12.2-3-18.4c-0.2-1.1-0.8-2.3-2-2.1c-3.4,0.5-7,0.4-10.2,1.9c-1.4,0.7-1.5,2-1.4,3.3
		c0.2,2.7,0.5,5.4,0.4,8.1c-0.4,8.1-0.9,16.2-1.4,24.3c-0.1,2-0.2,4-1.3,6.3c-7-6.4-14-12.4-18.8-20.1c-3.5-5.5-7.5-7.1-13.6-6.5
		c-0.6,5.3,2.1,9.4,4.8,13.3c6.6,9.8,15,17.9,24.4,25c2.5,1.9,3.4,4,3.5,7.2c0.2,8.4,0.1,16.9-0.1,25.3c-0.4,18.4-0.8,36.8,1,55.2
		c0.4,4.6,1.8,9.5,0,13.9c-4.4,10.4-10.1,20.2-18.6,28c-4.5,4.1-8.3,3.9-11.7-1.2c-5.3-7.7-7.7-16.5-7.4-25.7
		c0.3-8.6-0.5-17.1-0.8-25.7c-0.2-4.4-1.3-5-5.7-3.5c-4.2,1.4-8,3.3-12.8,3.4c-5.9,0.1-10.5,3.3-12.5,9.4
		c-4.9,15.3-5.2,30.8-1.6,46.2c2.3,10.2,7.6,11.7,16.6,8.4c3.8-1.4,6.4-4.4,8.3-8c0.6-1.2,0.7-2.9,2.5-3.2c0.3,0.3,0.6,0.5,0.8,0.8
		c6,9.6,16.6,10.3,25.6,5.5c6-3.2,10-8.1,14.2-13.1c1.7-2,2.8-4.6,5.3-5.8c1,0.8,0.9,1.8,1.2,2.6c1.6,6,2.9,12.1,5.5,17.8
		c6.3,13.7,20.2,17.5,32.7,9.1c4.1-2.8,6.8-6.7,9.5-10.7c2.6-3.8,4.2-8.1,7-13.1c0.8,3.1,1.4,5,1.7,7c0.8,4.8,2.2,9.3,4,13.8
		c5.2,13.1,18.2,17.1,29,8.6c3.6-2.8,6.4-6.4,8.3-10.6c1.6-3.5,3.1-7,5-11.4c2.7,5.8,5.2,11.1,12.4,10.6
		C428.2,220,432.4,216.4,436.6,212.2z M187.5,180.3c1.1,0.8,1,2,1.1,2.9c2.3,14.5,3.7,29.1,5.2,43.7c1,10.2,2.5,20.4,5.9,30.2
		c4.6,13.3,13.2,18.1,26.7,14.3c9.1-2.5,15.8-8.6,21-16.4c2.5-3.7,3.7-7.7,3.2-12.1c-0.2-2.2-1.4-3.9-3.5-4
		c-2.1-0.2-2.5,1.8-2.8,3.5c-1.6,9.3-6.9,16.1-14.7,21.1c-4.4,2.9-8.6,2.6-12.5-0.9c-2.2-1.9-3.8-4.2-5-6.9
		c-3.3-7.5-4.4-15.5-5.4-23.4c-2.5-19.6-4-39.2-7-58.7c-0.2-1.5-0.2-2.9,1.1-3.9c5.4-4.1,8.7-10,12.4-15.4
		c9.4-13.5,15.6-28.5,19.6-44.3c4.6-18.1,5.6-36.7,4.2-55.3c-0.7-10-3-19.7-11.8-26.1c-6.2-4.5-13.3-6.1-20.9-6.3
		c-13.2-0.4-25.6,1.9-36.8,9.3c-14.3,9.5-24.6,22.6-33,37.3c-2.9,5.1-5,10.6-6.4,16.3c-0.3,1.4-0.9,2.8,1.3,3.4
		c5.8,1.4,12-1.6,13.8-7.1c2.5-7.6,6.4-14.5,10.9-21c2.8-4.1,6.2-7.8,10.5-12.2c0.2,3.7,0.5,6.2,0.5,8.7
		c-0.3,23.9-0.6,47.8-0.9,71.7c0,1.4-0.3,2.5-1.3,3.5c-9.7,10.3-12.2,22.9-11.6,36.4c0.3,6.8,2.2,12.9,9.7,15.3
		c2.3,0.8,2.1,2.7,2.1,4.5c-0.2,19.1-0.4,38.2-0.7,57.3c-0.1,3.1-0.6,6.1-0.1,9.3c0.3,1.9,1.1,2.6,3.1,2.6c5.6,0,10-4.2,10.1-10
		c0.5-20.4,1.1-40.7,1.6-61.1c0-1.2,0.3-2,1.4-2.5C181.4,182.8,184.5,181.5,187.5,180.3z"/>
	<path fill="#F12415" d="M0.8,149.8c12.8-6.6,26.8-9.4,40.5-13.4c2.3-0.7,3-1.8,3-4.1c0.3-22.1,0.8-44.1,0.2-66.2
		c-0.1-2-1.2-4.7,1-5.7c3.6-1.6,7.1-4.2,11.3-3.3c2.4,0.5,1.7,2.9,1.8,4.6c0.7,16.8,0.4,33.5,0,50.3c-0.2,6.3,0,12.7,0,19.5
		c5-1,9.6-1.8,14.1-2.9c5.2-1.2,10.3-2.8,15.4-4.1c2.6-0.6,3.5-1.9,3.4-4.6c-0.9-15.7-1.6-31.4-2.3-47.1c-0.2-4,3.6-7,9-7.2
		c4.2-0.2,5.1,1.1,5.7,5.9c1.6,14.5,1.9,29,2.1,43.6c0,3.7,1.1,4.8,4.9,4c10.3-2.2,20.7-4.2,31.1-6c2.3-0.4,6.1-1.5,6.4,2
		c0.3,2.9-2.9,3.8-5.8,4.4c-11.4,2.5-22.7,5.3-34,7.9c-1.8,0.4-2.5,1.5-2.5,3.3c0,10,0,20,0,30c0,2.2,0.8,3.1,3,2.8
		c8.2-1,16.3-2.6,24.6-2.7c3.2-0.1,6.5-1.3,9.9-0.9c1.5,0.2,3.6,0.5,3.6,2.8c0,2.1-1.9,2.6-3.4,3.2c-5.4,2.4-11.3,2.9-17,3.7
		c-5.6,0.8-11.3,1.5-17,2c-2.5,0.3-3.7,1.4-3.8,3.9c-0.3,3.8,0.4,7.5,0.5,11.3c0.4,17.8,0.4,35.6,0.9,53.4c0.2,7.2-3.6,9.7-9.9,11.8
		c-2.3,0.8-4.1,0.2-4.8-2.8c-0.8-3.9-1.3-7.9-2.5-11.8c-0.5-1.9-1.5-4.7,1.5-6.2c0.5-0.3,0.7-1.6,0.7-2.5
		c0.2-17.9-0.5-35.8-1.1-53.9c-4.1-0.6-7.8,1-11.6,1.4c-5.7,0.7-11.3,1.8-16.9,2.6c-2.8,0.4-3.8,1.5-3.7,4.6
		c0.3,18.6,0.8,37.2,0.1,55.7c-0.2,4.4-1.5,8.4-3.2,12.3c-1.1,2.3-7.9,4.7-10,3.6c-1.7-0.9-1.1-2.5-1-3.8c1.1-12.2,1-24.4,0.6-36.6
		c-0.4-9.7-0.1-19.4-0.2-29.1c-0.1-3.5-1.6-4-4.4-3.4c-9.5,1.9-19,3.7-28.5,5.8c-3.8,0.8-7.7,0.9-11.5,1.6c0-1,0-2.1,0-3.1
		c12.6-5.7,25.9-8.9,39.5-11c3.1-0.5,4.4-1.6,4.2-5c-0.3-7.2-0.1-14.5-0.3-21.8c0-1.7,0.3-3.6-1.1-5.5c-5.2,0.7-10.2,2.6-15.2,4
		c-9,2.6-18,4.8-27.2,6.4C0.8,152.4,0.8,151.1,0.8,149.8z M91.2,131.2c-10.8,2.6-21,5-31.1,7.4c-1.4,0.3-1.7,1.4-1.7,2.7
		c0.1,9.2,0.2,18.4,0.2,27.6c0,2.1,0.8,3.1,3.1,2.7c8.9-1.7,17.8-3.3,26.7-4.9c2.1-0.4,3.1-1.3,3-3.6c-0.2-4.4-0.2-8.8-0.2-13.2
		C91.2,143.9,91.2,138,91.2,131.2z"/>
	<path fill="#FEF9F9" d="M0.8,153.7c9.2-1.6,18.2-3.9,27.2-6.4c5.1-1.4,10-3.3,15.2-4c1.4,1.8,1,3.7,1.1,5.5
		c0.1,7.3-0.1,14.5,0.3,21.8c0.2,3.4-1.1,4.5-4.2,5c-13.6,2-26.9,5.3-39.5,11C0.8,175.6,0.8,164.6,0.8,153.7z"/>
	<path fill="#F02314" d="M436.6,212.2c-4.2,4.2-8.4,7.8-14.7,8.2c-7.2,0.5-9.7-4.8-12.4-10.6c-1.9,4.4-3.4,7.9-5,11.4
		c-1.9,4.2-4.7,7.8-8.3,10.6c-10.7,8.4-23.8,4.5-29-8.6c-1.8-4.5-3.2-9.1-4-13.8c-0.3-2-1-3.9-1.7-7c-2.8,5-4.4,9.3-7,13.1
		c-2.7,4-5.4,7.9-9.5,10.7c-12.5,8.4-26.4,4.6-32.7-9.1c-2.6-5.7-3.9-11.8-5.5-17.8c-0.2-0.9-0.2-1.8-1.2-2.6
		c-2.5,1.2-3.6,3.8-5.3,5.8c-4.2,5-8.3,9.9-14.2,13.1c-9,4.8-19.7,4.1-25.6-5.5c-0.2-0.3-0.5-0.5-0.8-0.8c-1.8,0.3-1.9,2-2.5,3.2
		c-1.9,3.6-4.5,6.6-8.3,8c-9,3.3-14.3,1.8-16.6-8.4c-3.5-15.4-3.2-31,1.6-46.2c1.9-6.1,6.6-9.3,12.5-9.4c4.8-0.1,8.6-2.1,12.8-3.4
		c4.3-1.4,5.5-0.9,5.7,3.5c0.3,8.6,1.1,17.1,0.8,25.7c-0.3,9.2,2.1,18,7.4,25.7c3.5,5,7.3,5.3,11.7,1.2c8.5-7.8,14.1-17.6,18.6-28
		c1.9-4.4,0.4-9.3,0-13.9c-1.7-18.4-1.3-36.8-1-55.2c0.2-8.4,0.3-16.9,0.1-25.3c-0.1-3.2-1-5.3-3.5-7.2c-9.4-7.1-17.8-15.2-24.4-25
		c-2.6-3.9-5.4-8-4.8-13.3c6.1-0.6,10.2,1,13.6,6.5c4.8,7.6,11.8,13.7,18.8,20.1c1.1-2.3,1.1-4.4,1.3-6.3c0.5-8.1,1-16.2,1.4-24.3
		c0.1-2.7-0.2-5.4-0.4-8.1c-0.1-1.4,0-2.7,1.4-3.3c3.2-1.5,6.8-1.4,10.2-1.9c1.2-0.2,1.8,1,2,2.1c1,6.1,1.8,12.3,3,18.4
		c1.4,7.5,1.2,15.2,2.5,22.7c0.6,3.8,0.6,7.8,0.4,11.6c-0.2,3.5,1.4,5.6,4.2,7.2c7.2,4.1,14.5,8,22.6,10.3c2.6,0.7,5,1.8,8.2,2.9
		c0.3-4.6,0.6-8.7,0.7-12.7c0.1-11,1.9-21.9,1.4-32.9c-0.1-2.5,0.6-4.7,2.8-5.5c2.7-1,5.7-2.1,8.7-0.8c1.1,0.5,1.3,1.5,1.4,2.6
		c1.7,12,2.9,24,2.4,36.1c-0.2,4.8,0,9.6-0.5,14.3c-0.2,2.9,0.7,4.6,3.7,5.3c8,1.9,15.8,4.1,23.8,5.9c16.4,3.9,33.1,6.4,50,7
		c22.1,0.7,43.5-3,64.4-10.2c2.3-0.8,4.6-1.7,7-2.4c3.3-1.1,4.4-3.6,4.9-6.8c3.8-25.3,7.5-50.6,13.8-75.5c1.2-4.9,3-9.7,4.9-14.4
		c2.1-5.3,5.2-7,10.9-6.7c7.3,0.5,12.5,4.4,15.9,10.5c6,10.8,7.8,22.7,6.7,35c-0.7,8.9-1.8,17.8-5.4,26.2
		c-6.4,15.1-16.5,26.6-31.1,34.1c-2.7,1.4-4,3.2-4.6,6.1c-2,9.5-4.1,19-6.2,28.5c-0.6,2.7-0.5,5.4,0.2,8.1
		c3.9,14.8,8,29.5,14.5,43.5c1.4,2.9,7.1,4.2,10.2,1.8c10.2-7.6,17.6-17.5,21.3-29.5c4-12.9,8.1-25.8,12.6-38.5
		c1.3-3.8,3.6-5.3,7.3-4.5c2.6,0.5,4.2-0.2,6.2-1.9c6-5,16.9-1.8,22.1,4.2c5.1,5.9,7.8,12.8,8.1,20.6c0.1,1.7-0.3,3.6,1.2,5.5
		c4.2-2.2,6.3-6.3,9-9.8c5-6.4,5.9-14.3,7.6-21.9c1-4.3,2.1-8.6,3.3-12.8c0.7-2.4,0.9-5.6,4.7-4.9c3.7,0.6,6.9,4.4,6.3,7.7
		c-0.7,4-1.9,7.8-2.7,11.8c-2,9.4-4.8,18.7-5.5,28.2c-0.8,10.4-0.5,21.1,3.8,31c3.1,7,7.2,8.5,13.9,5.1c6.8-3.5,11.3-9.1,14.7-15.6
		c2.8-5.3,4.5-11.1,6.3-16.8c1.7-5.4,0.4-10.7-0.4-16.1c-1.2-9.3-1.7-18.6-0.6-28c0.2-1.4-0.6-3.6,1.3-4.1c2-0.6,4.1,0,5.8,1.4
		c3.9,3.4,4.9,8.2,5.6,12.9c1.1,7.2,0.9,14.5-0.1,21.7c-1.4,10,5.2,23.1,14,27.7c0.8,0.4,1.5,1.1,2.5,0.7c0.9-1.2,0.1-2.2-0.3-3.3
		c-4.3-14.2-1.4-27.4,5.3-40.1c3.1-5.9,6.8-11.4,12.2-15.5c5.9-4.3,9.9-4.4,16-0.4c10,6.6,14.5,16.2,13.9,28.2
		c-0.6,12.1-3.6,23.3-12.4,32.3c-4.7,4.8-10.4,7.7-17,8.8c-3.1,0.5-3.5,1.4-2,4c6.5,11.2,16.5,17.5,28.8,21
		c5.7,1.6,11.1,1.8,16.7-0.6c2.6-1.1,4.2-3,5.9-4.9c0.8-0.9,1.5-1.9,2.9-1.4c1.3,0.5,0.8,1.7,0.8,2.7c-0.1,5.7-4.4,10.2-10.9,11.6
		c-4.7,1-9.5,0.4-14-0.7c-17.4-4.4-30.9-14.3-40.5-29.5c-1.1-1.7-2.3-2.9-4.3-3.7c-4.2-1.8-8-4.3-11.5-7.2c-3.4-2.9-6.3-6.1-9.2-9.8
		c-2.5,2.7-2.8,6-3.9,8.9c-3.9,9.8-9.8,18-19.4,23c-10.1,5.2-19.6,0.8-26.7-7.9c-4.8-5.9-6.6-13.1-7.3-20.6c-0.3-3-0.6-6.1-0.9-9.4
		c-2.7,0.6-3.8,2.5-5.3,3.8c-2,1.6-3.9,3.4-6.2,4.7c-1.9,1-3,2.7-3.4,4.9c-1.9,8.4-6.6,15.2-12.9,20.9c-4.6,4.1-9.6,7.4-15.8,8.7
		c-9,1.9-16.3-0.8-22.3-7.5c-0.7-0.8-1.3-1.6-1.8-2.3c-2.3,0.5-3,2.2-4.1,3.4c-5.2,5.5-10.9,10-18.5,11.4c-8.7,1.7-15.5-1.7-21.1-8
		c-4.6-5.1-6.9-11.5-9.3-17.9c-0.5-1.3-0.7-2.8-1.9-4c-1.5,1.3-1.5,3.2-2,4.8c-2.7,9.5-4.7,19.2-9.2,28.1c-4.1,8.1-9.8,13-18.6,11.7
		c-3.1-0.4-5.1-2.1-6.4-4.9c-5.8-12.9-6-26.5-4.1-40c1.2-8.9,3.7-17.7,9.1-25.4c5.7-8.2,13.2-12.3,23.2-11.4c3,0.3,4.2-0.7,4.7-3.5
		c1-5.5,3.1-10.9,2.8-17.3c-3.9,0.9-7.5,1.5-11,2.5c-15.9,4.7-32.2,6.7-48.7,7.5c-20.5,0.9-40.7-1.5-60.7-5.4
		c-8.8-1.7-17.7-3.5-26.5-5.4c-3.3-0.7-4.6,0.1-4.9,3.7c-1.1,14.9-2.6,29.7-3.8,44.5c-0.7,8.1,0.7,16.1,1.2,24.1
		c0.4,5.3,1,10.6,1.8,15.8c1.2,8.4,2.9,16.6,9.1,23.1c3.6,3.8,5.1,3.8,8.4-0.1c5.1-6.2,7.3-13.7,9.1-21.3c4.3-18.9,6.3-38.1,6-57.5
		c-0.1-4.2,2.8-6.5,8.4-6.5c3.7,0,3.9,3.1,3.9,5.6c0,10.5-0.7,21-0.1,31.5c0.5,9.7-0.5,19.5,2.1,29.1c0.7,2.4,1.2,5.4,3.9,5.8
		c2.8,0.5,4-2.6,5.2-4.6c6.3-9.9,8-21.3,9.4-32.7c0.6-5,0.7-10.1,1.1-15.1c0.4-4.9,6.8-8.1,10.9-5.5c1.6,1,1.5,2.7,1.4,4.2
		c-1.1,11.5-1,23-1.7,34.5c-0.9,15.3-1.9,30.5-3.1,45.8c-1.3,15.2-2.2,30.5-4.8,45.6c-2.4,13.8-4.6,27.7-9,40.9
		c-3,9.2-6.9,18.7-16.1,23.6c-12.5,6.6-21.4,2.2-27.1-10.2c-5.8-12.6-4.2-25.6-1.1-38.5c3.1-12.8,9-24,19-32.8
		c3.3-2.9,6.7-5.7,10.2-8.4c1.7-1.3,4.2-2.5,5.6-0.7c1.5,1.9-0.6,4-2.2,5.1c-11.7,8.2-17.7,20.4-22,33.2
		c-4.1,12.1-4.6,24.7-0.2,37.1c1.7,5,5,8.8,9.3,11.6c2,1.3,3.9,1.1,6-0.6c4.6-3.8,5.5-9.2,7.2-14.3c5.9-17.7,8.3-36.2,10.7-54.6
		c2.7-20.5,3.3-41.2,4.2-61.8C437.5,214,437.8,213.1,436.6,212.2z M325.9,97.1c-0.9,6.2-0.6,12.1-0.8,18.1
		c-0.4,18.2-2.8,36.1-7.2,53.8c-1.7,6.9-2.4,13.6-1.1,20.7c2.1,11.3,3.9,22.5,12.2,31.4c3.2,3.4,7.6,4.1,11.1,1.1
		c1.3-1.2,2.5-2.7,3.5-4.2c9.9-15.1,14.6-32,15.2-49.6c0.5-18.5-0.7-37.1,0.1-55.7c0.1-2.7-0.9-3.9-3.5-4.7c-5-1.6-9.9-3.7-15-5.3
		C335.6,101,331.3,98.2,325.9,97.1z M736.4,159.1c0,4.1,0.6,7.3,1.3,10.5c0.6,2.8,2,3.3,4.4,2.6c8.5-2.3,15.1-7,19.2-15.1
		c4.5-8.8,6.1-18.1,6.2-27.8c0.1-4.4-1.8-8.8-5.9-10.7c-3.8-1.7-7.1,1.2-10.1,3.5c-0.9,0.7-1.8,1.6-2.4,2.5
		C741.6,135.3,735.2,146.3,736.4,159.1z M600.4,147.6c-2.8,2.6-2.7,5.8-3.7,8.5c-3.3,8.9-6.4,17.7-5.2,27.5
		c0.9,7.2,4.9,10.1,11.8,7.8c10.7-3.7,17-11.8,21.6-21.6c1.2-2.5,0-3.2-2.3-3.6c-7.6-1.4-13.7-5.3-18.1-11.8
		C603.2,152.3,601.9,150.1,600.4,147.6z M561.5,16.1c-4.8,4.8-18.4,68-16.3,75.8c0.9,0.1,1.3-0.7,1.9-1.2c7.3-6.6,11.9-15,15.2-24.1
		c5.3-14.7,7.4-29.7,2.7-45C564.3,19.5,563.7,17.3,561.5,16.1z M502.5,206.4c1.4-0.3,1.7-1.3,2.3-2.1c2.8-3.9,3.2-8.5,4.4-12.9
		c2.8-10.4,5.9-20.9,8.4-31.4c1-4.4,3.2-8.9,0.5-13.5c-0.8-1.4-1.6-2.9-3.5-2.6c-1.8,0.4-3.7,0.7-4.7,2.8c-2.1,4.3-4.7,8.3-6.3,12.9
		c-4.6,13.4-6.8,27.1-4.2,41.2C499.8,203.1,500.9,204.9,502.5,206.4z M246.1,214.4c0.7-1,1.1-1.5,1.4-2c7.5-13,6.3-26.9,4.5-40.9
		c-0.1-1-0.8-1.9-1.4-2.7c-1.2-1.5-1.9-4-4.1-3.6c-2.3,0.4-2.3,3.1-2.8,5c-2.8,11.1-2.6,22.3-1.7,33.6
		C242.2,207.4,242.7,211.2,246.1,214.4z M628.1,149.3c-0.1-2-0.3-4.8-0.7-7.6c-0.4-2.9-1.7-5.7-1.2-9c0.4-2.2-2-4.3-4.4-5.2
		c-1.8-0.7-3.6-1.2-5.4,0.5c-8,7.1-8.1,21.7-0.1,28.9c2,1.8,8.5,3.2,10.3,1.9c2.5-1.8,1.6-4.7,1.7-7.2
		C628.4,151.1,628.3,150.6,628.1,149.3z"/>
	<path fill="#F12314" d="M187.5,180.3c-3,1.2-6.1,2.5-9.2,3.7c-1.1,0.5-1.4,1.3-1.4,2.5c-0.5,20.4-1,40.7-1.6,61.1
		c-0.1,5.8-4.5,10-10.1,10c-1.9,0-2.8-0.7-3.1-2.6c-0.5-3.1,0.1-6.2,0.1-9.3c0.3-19.1,0.5-38.2,0.7-57.3c0-1.8,0.2-3.7-2.1-4.5
		c-7.5-2.4-9.4-8.6-9.7-15.3c-0.6-13.5,1.9-26.1,11.6-36.4c1-1,1.3-2.1,1.3-3.5c0.3-23.9,0.6-47.8,0.9-71.7c0-2.5-0.3-5.1-0.5-8.7
		c-4.3,4.4-7.7,8.1-10.5,12.2c-4.4,6.6-8.4,13.4-10.9,21c-1.8,5.6-7.9,8.5-13.8,7.1c-2.2-0.5-1.6-2-1.3-3.4
		c1.4-5.7,3.5-11.2,6.4-16.3c8.4-14.7,18.7-27.8,33-37.3c11.1-7.4,23.6-9.7,36.8-9.3c7.6,0.2,14.7,1.8,20.9,6.3
		c8.9,6.4,11.1,16,11.8,26.1c1.4,18.6,0.4,37.1-4.2,55.3c-4,15.8-10.2,30.8-19.6,44.3c-3.8,5.4-7,11.3-12.4,15.4
		c-1.3,1-1.3,2.4-1.1,3.9c3,19.5,4.5,39.2,7,58.7c1,8,2.1,15.9,5.4,23.4c1.2,2.7,2.9,5,5,6.9c4,3.5,8.1,3.8,12.5,0.9
		c7.7-5.1,13-11.9,14.7-21.1c0.3-1.8,0.7-3.7,2.8-3.5c2.1,0.2,3.3,1.8,3.5,4c0.4,4.4-0.7,8.4-3.2,12.1c-5.2,7.8-12,13.9-21,16.4
		c-13.5,3.8-22.1-1-26.7-14.3c-3.4-9.7-4.8-19.9-5.9-30.2c-1.5-14.6-3-29.2-5.2-43.7C188.5,182.3,188.6,181.1,187.5,180.3z
		 M197.1,158.7c0.3,0.2,0.7,0.4,1,0.6c0.3-0.6,0.6-1.2,0.9-1.7c8.1-10.8,13.8-22.9,18.4-35.5c5.7-15.6,7.9-32,8.5-48.5
		c0.4-11.2-0.4-22.3-4.9-32.9c-4.3-10-14.8-15.5-24.7-13.1c-8.2,2-15.6,5.8-22.3,10.7c-2.7,2-5.4,4.2-7.4,7.8
		c2.8-0.2,4.7-0.3,6.6-0.4c3.7-0.1,6,1.1,6.3,5.4c0.3,4.8-0.8,9.6-0.6,14.3c0.4,12.3,0.1,24.6-0.3,37c-0.2,6.5-0.1,13-0.8,19.4
		c-0.3,3-0.4,5,3,5.9c1.9,0.5,3.6,1.7,4.6,3.4c2.3,4.1,4.7,8.1,6.2,12.5C193.6,148.7,195.4,153.7,197.1,158.7z M177.3,145.7
		c0,10.6,0,21.1,0,32c3-0.8,5.2-2.3,7.3-4c1.1-0.9,2.2-1.9,1.9-3.6C185,161.5,182.1,153.3,177.3,145.7z"/>
	<path fill="#FEF9F9" d="M91.2,131.2c0,6.8,0,12.7,0,18.7c0,4.4,0,8.8,0.2,13.2c0.1,2.3-0.9,3.2-3,3.6c-8.9,1.6-17.8,3.2-26.7,4.9
		c-2.3,0.4-3.1-0.5-3.1-2.7c0-9.2-0.1-18.4-0.2-27.6c0-1.3,0.2-2.4,1.7-2.7C70.2,136.1,80.4,133.7,91.2,131.2z"/>
	<path fill="#FEFBFA" d="M325.9,97.1c5.4,1.1,9.7,3.9,14.5,5.5c5,1.7,9.9,3.7,15,5.3c2.5,0.8,3.6,2.1,3.5,4.7
		c-0.8,18.6,0.5,37.1-0.1,55.7c-0.5,17.6-5.3,34.6-15.2,49.6c-1,1.5-2.1,3-3.5,4.2c-3.5,3-7.9,2.3-11.1-1.1
		c-8.3-8.9-10.1-20.2-12.2-31.4c-1.3-7-0.6-13.8,1.1-20.7c4.4-17.6,6.8-35.6,7.2-53.8C325.3,109.2,325,103.3,325.9,97.1z"/>
	<path fill="#FEF8F8" d="M736.4,159.1c-1.2-12.9,5.3-23.9,12.7-34.5c0.7-0.9,1.5-1.8,2.4-2.5c3-2.2,6.3-5.2,10.1-3.5
		c4.1,1.9,5.9,6.2,5.9,10.7c-0.1,9.6-1.7,19-6.2,27.8c-4.1,8.1-10.6,12.8-19.2,15.1c-2.4,0.7-3.7,0.2-4.4-2.6
		C737,166.4,736.4,163.3,736.4,159.1z"/>
	<path fill="#FEF7F7" d="M600.4,147.6c1.6,2.5,2.9,4.7,4.3,6.9c4.4,6.5,10.4,10.4,18.1,11.8c2.3,0.4,3.4,1.1,2.3,3.6
		c-4.6,9.8-10.9,18-21.6,21.6c-6.9,2.4-10.9-0.6-11.8-7.8c-1.2-9.8,1.9-18.7,5.2-27.5C597.7,153.4,597.6,150.2,600.4,147.6z"/>
	<path fill="#FDF4F3" d="M561.5,16.1c2.1,1.2,2.8,3.3,3.4,5.4c4.7,15.3,2.6,30.3-2.7,45c-3.3,9.1-7.9,17.5-15.2,24.1
		c-0.5,0.5-1,1.3-1.9,1.2C543.2,84.2,556.8,21,561.5,16.1z"/>
	<path fill="#FDF4F4" d="M502.5,206.4c-1.6-1.5-2.7-3.3-3.1-5.5c-2.7-14.1-0.4-27.8,4.2-41.2c1.6-4.6,4.2-8.6,6.3-12.9
		c1-2.1,2.9-2.4,4.7-2.8c1.9-0.4,2.7,1.2,3.5,2.6c2.7,4.6,0.5,9.2-0.5,13.5c-2.5,10.5-5.5,20.9-8.4,31.4c-1.2,4.4-1.6,9-4.4,12.9
		C504.1,205.1,503.9,206.1,502.5,206.4z"/>
	<path fill="#FDF3F2" d="M246.1,214.4c-3.4-3.2-3.9-7-4.2-10.6c-0.9-11.2-1.1-22.5,1.7-33.6c0.5-2,0.5-4.6,2.8-5
		c2.2-0.4,2.9,2.1,4.1,3.6c0.6,0.8,1.3,1.8,1.4,2.7c1.8,14,3,27.9-4.5,40.9C247.2,212.9,246.8,213.4,246.1,214.4z"/>
	<path fill="#FDF4F4" d="M628.1,149.3c0.1,1.3,0.2,1.8,0.2,2.3c0,2.5,0.8,5.4-1.7,7.2c-1.8,1.3-8.3-0.1-10.3-1.9
		c-8-7.2-7.9-21.9,0.1-28.9c1.8-1.6,3.6-1.2,5.4-0.5c2.4,0.9,4.7,3,4.4,5.2c-0.5,3.3,0.8,6.1,1.2,9
		C627.9,144.5,628,147.2,628.1,149.3z"/>
	<path fill="#FEFBFB" d="M197.1,158.7c-1.8-5-3.5-9.9-5.3-14.9c-1.5-4.5-3.9-8.5-6.2-12.5c-1-1.7-2.7-2.9-4.6-3.4
		c-3.3-0.9-3.3-2.9-3-5.9c0.7-6.4,0.6-12.9,0.8-19.4c0.4-12.3,0.6-24.6,0.3-37c-0.1-4.7,1-9.5,0.6-14.3c-0.3-4.4-2.6-5.6-6.3-5.4
		c-1.9,0.1-3.8,0.2-6.6,0.4c2-3.6,4.7-5.8,7.4-7.8c6.8-4.9,14.1-8.7,22.3-10.7c9.9-2.4,20.4,3.1,24.7,13.1
		c4.5,10.5,5.3,21.7,4.9,32.9c-0.6,16.5-2.8,32.9-8.5,48.5c-4.6,12.6-10.3,24.7-18.4,35.5c-0.4,0.5-0.6,1.1-0.9,1.7
		C197.8,159.1,197.5,158.9,197.1,158.7z"/>
	<path fill="#FDE9E7" d="M177.3,145.7c4.8,7.6,7.7,15.8,9.2,24.5c0.3,1.7-0.8,2.7-1.9,3.6c-2.1,1.7-4.3,3.2-7.3,4
		C177.3,166.8,177.3,156.3,177.3,145.7z"/>
</g>
</svg>
