<?xml version="1.0" encoding="utf-8"?>
<!-- Generator: Adobe Illustrator 18.1.1, SVG Export Plug-In . SVG Version: 6.00 Build 0)  -->
<svg version="1.1" id="Layer_1" xmlns="http://www.w3.org/2000/svg" xmlns:xlink="http://www.w3.org/1999/xlink" x="0px" y="0px"
	 viewBox="0 0 1051.6 775.2" enable-background="new 0 0 1051.6 775.2" xml:space="preserve">
<g>
	<path d="M57.7,688c0.9-2.1,3-3.6,4.2-5.6c1-1.7,1.6-3.6,2.4-5.4c1.5-3.5,2.6-7.3,4.7-10.5c2.2-3.3,3-7,4.6-10.5
		c0.8-1.7,0.7-3.9,1.1-5.8c0.5-2.1,1.4-4.1,2-6.2c0.5-1.9,0.9-3.7,1.2-5.1c-2.4-1.6-4.9-2.7-6.6-4.5c-2.6-2.8-4.6-6.1-6.9-9.1
		c-2-2.5-1.9-5.7-2.8-8.6c-0.3-0.9,0-2,0.1-3.1c0.3-2.7,0.4-5.4,0.9-8c0.2-1.1,1.4-2.1,1.9-3.2c1.3-2.5,2.6-5,4.4-7.1
		c0.8-0.9,2.3-1.3,3.6-1.7c5.9-1.8,12-2.6,17.6,0.7c1.9,1.1,3.7,2.8,5,5.1c1.6,2.7,3.3,5.4,3.8,8.5c0.4,2.5,0.8,5.1,0.8,7.7
		c0,2.9-0.4,5.8-0.5,8.7c0,0.4,1.4,1.2,2,1.1c5.1-1.3,10-0.4,15,0.5c2.8,0.5,4.4,2,6,3.7c0.5,0.5,0.5,1.6,0.6,2.4
		c0.1,2.3,0.4,4.6,0.2,6.9c-0.2,3.6-0.5,7.1-1.2,10.6c-0.8,4.2-2.2,8.4-3,12.6c-0.8,4.9-1.1,10-1.7,14.9c-0.4,3.1-1.1,6.3-1.5,9.4
		c-0.2,1.9-0.4,4,0.1,5.9c0.8,3.1,6.3,4,8.3,1.4c0.9-1.1,1.4-2.6,2.1-3.8c1.6-2.9,3.2-5.8,5-8.6c1.9-2.9,3.4-5.9,3.7-9.4
		c0-0.4,0.6-0.7,0.9-1c1.9-1.7,1.9-1.7,1.2-3.5c2.6-3.9,5.1-7.6,7.6-11.3c2.9-4.2,6-8.2,9.8-11.7c0.7-0.7,1-1.9,1.5-3.1
		c0.8-1,1.6-2.3,2.6-3.3c1.1-1,2.5-1.9,3.9-2.5c2.6-1,5.5-1.3,7.8-2.7c2.5-1.7,5.1-2.3,7.8-2.6c4.1-0.5,8.2-0.5,12.1,1.3
		c1.8,0.9,2.6,0,3-1.6c0.3-1.1,0.9-2.3,0.8-3.3c-0.5-2.6,1.7-3.5,3-3.7c3.3-0.6,6.7-0.6,10.1-0.6c0.9,0,2.1,0.4,2.6,1.1
		c1.1,1.6,2.3,3.4,1.9,5.6c-0.3,1.3-0.4,2.7-0.6,4.1c-0.8,5.5-1.7,10.9-2.5,16.4c-0.3,2.3-0.2,4.8-0.5,7.1c-0.3,2.7-1.1,5.3-1.4,7.9
		c-0.2,1.9,0.4,4-0.2,5.7c-1,2.5-0.4,4.8,0.2,7.1c0.9,3.5,2.1,7,3.5,10.4c0.4,1.1,1.3,2.5,3.1,1.5c0.3-0.2,1,0.7,1.7,0.9
		c0.8,0.3,1.9,0.7,2.4,0.4c0.7-0.4,0.9-1.5,1.5-2.6c3-0.2,4.2-3.4,5.9-5.8c2.2-3.1,4.5-6.2,6.2-9.6c2-4.2,3.4-8.8,5-13.2
		c0.2-0.4,0.3-0.9,0.5-1.3c2.3-5.7,4.6-11.4,6.9-17.2c1.8-4.4,3.7-8.7,5.3-13.1c1.8-5.1,3.4-10.3,4.9-15.6c1.1-4.1,1.8-8.3,2.6-12.5
		c0.2-1.1,0.4-2.3,0.7-3.4c0.4-1.8-0.8-2.2-2-2.1c-3,0.1-6,0.5-9,0.7c-0.5,0-0.9,0-1.4,0c-2.4-0.1-4.8-0.2-7.2-0.4
		c-5.3-0.6-10.7-1.2-16-1.8c-2.7-0.3-5.5-0.4-7.9-1.3c-2.1-0.8-4.3-2.4-5.6-4.2c-1.7-2.6,0.9-5.4,4.5-5.3c4.9,0,9.8,0.4,14.6-0.1
		c4.7-0.5,9.3,0.8,13.9,0.3c2.5-0.3,4.9-0.8,7.4-0.9c2.4-0.2,4.9,0,7.3-0.2c3.1-0.1,3.1-0.2,3.1-3.4c0-2,0.7-4.1,0.5-6
		c-0.4-2.9,1.2-5.8-0.2-8.6c-0.2-0.5,0.6-1.4,0.6-2.2c0.2-4.7,0.1-9.5,0.4-14.2c0.1-1.3,1-3,2.1-3.6c4.6-2.6,10.8-2.5,15.2,1.3
		c0.4,0.3,0.8,0.9,0.8,1.3c0,1.7-0.2,3.4-0.3,5.1c-0.1,2.7-0.4,5.4-0.3,8c0,3.5,0.4,6.9,0.3,10.4c0,1.7-0.8,3.5-0.9,5.2
		c-0.2,2.7,0.7,3.5,3.4,3.2c3.8-0.3,7.7-0.5,11.5-1c2.4-0.3,4.8-0.9,7.2-1.2c3.5-0.4,7.1-0.6,10.6-0.9c3.2-0.3,6.6-0.3,9.7-1.1
		c0.9-0.2,1.7-2.6,1.9-4c0.2-2.3-0.3-4.7-0.2-7c0.1-1.7,0.7-3.4,1-5.2c0.4-2.3,1-4.7,1.1-7.1c0.1-3.1,3.3-7,6.5-7.1
		c2.7-0.1,5.5,0.2,8.2,0.6c2.9,0.5,3.7,2.6,3.1,5.5c-0.4,1.8,0.4,3.8,0.3,5.7c-0.1,3-0.5,6.1-0.8,9.1c-0.2,1.6-0.5,3.2-0.7,4.9
		c-0.3,1.7,1,2.6,2.7,2.3c2.4-0.5,4.9-0.8,7.4-1c2.2-0.2,4.4-0.2,6.5-0.3c4.4-0.3,8.8-0.6,13.2-0.9c2.8-0.2,5.6-0.2,8.5-0.6
		c2.7-0.3,5.4-1,8.1-1.3c2.4-0.3,4.8-0.2,7.1-0.4c4.9-0.4,9.8-0.8,14.7-1.2c4.1-0.4,8.2-1,12.3-1.2c1.8-0.1,3.9,0.3,5.6,1
		c1.3,0.6,2.5,2.1,2.9,3.4c0.3,1.1-0.7,2.5-1.2,3.8c-1.3,2.8-4.1,3.7-6.7,4.8c-4.5,2-9.4,1.6-14.2,2.1c-6.9,0.7-13.8,1.2-20.7,1.8
		c-7.6,0.7-15.1,1.4-22.7,2c-5.2,0.4-10.4,0.5-15.6,0.9c-2.5,0.2-5,0.5-7.3,1.2c-0.9,0.3-2,1.7-2.1,2.7c-0.9,8.4-1.6,16.9-2.3,25.3
		c-0.2,2.8,0.6,6-0.6,8.2c-1.6,3-1.2,6.1-1.5,9c-0.7,6.5-1.1,13.1-1.4,19.7c-0.2,5.6-0.1,11.2,0.1,16.7c0.1,3.8,0.2,7.6,0.8,11.3
		c0.5,3.2,1.5,6.5,2.9,9.4c1.6,3.3,6.2,2.7,8.6,0c3.2-3.6,5.2-7.9,7.9-11.8c2.1-3,3.4-6.6,5.2-9.9c2-3.7,4.3-7.1,6.1-10.9
		c1.3-2.8,2-5.9,3-8.8c0.5-1.4,1.1-2.7,1.4-4.1c1-3.9,1.8-7.7,2.8-11.6c0.6-2.3,1.4-4.5,2-6.8c0.4-1.6,0.3-3.4,0.8-5
		c0.9-3.1,4.6-5.6,7.8-5.4c1.5,0.1,3,0.2,4.4,0.3c2.9,0.3,4.4,2.3,4.1,5.1c-0.5,4.4-0.7,8.8-1.2,13.2c-0.2,2.5-0.8,5-1,7.5
		c-0.2,2.3-0.2,4.6-0.3,6.9c-0.1,1.1-0.3,2.1-0.4,3.2c-0.1,0.5-0.3,0.9-0.3,1.3c-0.2,4.3-0.3,8.5-0.4,12.8c-0.1,4-0.4,8-0.4,11.9
		c0,2.4,0.3,4.9,0.6,7.3c0.2,1.4,2,1.8,3.2,0.7c1.3-1.3,2.2-2.8,3.5-4.1c3.2-3.1,5.2-6.7,6.6-11c2.2-6.8,4.7-13.5,7.3-20.2
		c2-5,4.5-9.8,6.4-14.8c0.8-2,0.1-4.6,0.7-6.7c0.8-3,0.3-6.3,2.8-9.1c1.8-2,3.8-3,5.9-3.1c2.8-0.2,6.1-0.5,8.4,1.8
		c1.1,1,1.9,2.8,1.9,4.3c0,3.3-0.5,6.6-0.8,9.9c-0.6,5.6-1.1,11.2-1.8,16.7c-0.5,4.2-1.1,8.3-1.6,12.5c-0.5,5.5-0.9,11-1.4,16.5
		c-0.1,1.4-0.3,2.8-0.4,4.2c0.3,0.1,0.7,0.2,1,0.3c1.7-2.2,3.3-4.6,5.1-6.7c0.7-0.8,2.1-1.1,2.8-1.9c2-2.4,3.8-4.9,5.8-7.4
		c1-1.2,2.3-2.2,3.3-3.4c3.6-4.2,7.5-8.2,10.5-12.7c3.1-4.5,6.6-8.9,6.2-15c-0.2-3.5,0.2-7,0.4-10.5c0-0.2,0.1-0.3,0.1-0.5
		c0.7-5.1,1.4-10.2,2.2-15.3c0.2-1.4,0.6-2.8,1.1-4.7c2.3-0.8,0.9-3.7,1.6-5.7c1.1-3.5,1.5-7.2,2.4-10.7c0.6-2.4,1.3-4.9,2.1-7.3
		c0.6-2,1.4-3.9,2.1-5.9c1.4-3.8,2.7-7.5,4.1-11.3c0.1-0.2,0.1-0.5,0.3-0.6c2.6-3.7,4.8-7.8,8-10.9c2.2-2.2,5-4.7,8.9-4.3
		c3.5,0.3,7.1,0.5,10.6,0.9c1,0.1,2.2,0.5,3,1.1c1.7,1.4,3.5,2.9,4.9,4.6c0.7,0.9,0.7,2.5,1.1,3.7c1.5,4.8,1.9,9.7,1.3,14.7
		c-0.3,2.4-0.2,4.8-0.7,7.1c-0.9,4-1.9,7.9-3.3,11.7c-1.5,4.2-3.1,8.4-5.1,12.4c-1.8,3.4-3,7.1-5.9,9.9c-1.7,1.6-2.6,4.1-3.9,6.1
		c-2.8,4.2-5.8,8.4-8.7,12.5c-0.9,1.2-1.9,2.3-2.7,3.5c-1.7,2.4-3.7,4.7-4.9,7.4c-0.9,2-1.1,4.6-1,6.9c0.3,6.2,0.7,12.4,1.4,18.6
		c0.3,2.7,1.3,5.5,2.2,8.1c0.7,1.9,1.8,2.2,4.1,1.9c4.3-0.6,7.9-2.8,11.6-4.5c0.4-0.2,0.9-0.4,1.2-0.7c2.3-1.8,4.7-3.4,6.7-5.5
		c2-2.1,3.5-4.8,5.2-7.2c1.6-2.3,3.2-4.5,4.7-6.8c0.4-0.6,0.5-1.3,0.8-1.9c0.8-1.2,1.6-2.4,2.4-3.6c0.8-1.2,1.4-2.6,2.3-3.8
		c2.1-2.8,4.3-5.5,6.3-8.4c2.4-3.5,4.5-7.2,7-10.6c1.3-1.8,3-3.4,4.6-5c4.7-4.9,9.4-9.8,14.2-14.6c2.4-2.4,4.9-5,7.8-6.7
		c2.9-1.8,6.2-3.2,9.8-3.2c3.3,0.1,6.7-0.1,10,0.4c5.6,0.8,9.5,4.2,12.5,8.7c0.7,1.1,1.3,2.3,1.9,3.5c0.8,1.8,1.3,3.7,2.1,5.4
		c1.1,2.4,2.7,2.5,4.6,0.7c2.9-2.8,6-5.4,9.1-8.1c0.8-0.7,1.6-1.5,2.5-2.1c3.4-2.3,6.8-4.9,11.2-4.7c2.3,0.1,4.7,0.4,6.7,1.3
		c1.4,0.6,2.8,2.4,3.1,3.8c0.6,3,0.1,6.1-1.1,9c-2.6,6.2-5.1,12.4-7.6,18.6c-0.7,1.8-1.8,3.4-2.5,5.1c-0.6,1.5-1,3.2-1.5,4.8
		c-0.8,2.7-1.7,5.4-2.4,8.2c-0.5,1.6-0.7,3.3-1.2,4.9c-0.9,3.1-0.8,6.3-0.4,9.5c0.2,1.8,1.3,2.1,2.8,1.1c7.3-4.8,9.7-12.6,12.5-20.3
		c0.9-2.6,2.4-5,3.4-7.5c0.7-1.9,1.1-3.9,1.6-5.9c0.1-0.5,0.2-1,0.4-1.5c1.9-4.4,4-8.8,5.6-13.3c0.9-2.6,1.1-5.5,1.8-8.1
		c0.4-1.6,0.6-3.6,2.8-4.2c0.3-0.1,0.5-0.8,0.8-1.1c0.8-0.7,1.7-1.8,2.5-1.9c3.7-0.1,7.5-0.3,10,3.4c0.2,0.2,0.5,0.4,0.5,0.6
		c0.1,3.8-0.3,7.7,0.2,11.4c0.6,5.2,0.4,10.6,3.4,15.4c1.2,1.9,1.9,4.1,2.8,6.2c0.3,0,0.6-0.1,0.9-0.1c0.4-1.8,0.7-3.7,1.4-5.4
		c0.8-2.2,2.4-4.3,2.6-6.6c0.3-3.7,2.6-6.7,3.3-10.2c0.3-1.2,1.3-2.2,2-3.4c1.6-2.5,2.9-5.3,4.8-7.6c1.8-2.1,4.4-3.5,6.3-5.6
		c1.5-1.6,3-2.9,5.1-3.5c6.6-1.8,13.1-1.9,18.5,2.8c2.9,2.5,4.9,5.9,5.8,9.7c0.5,2.1,1.4,4.3,1.1,6.3c-0.6,3.8-1.6,7.7-3.1,11.3
		c-1.3,3.2-3.1,6.2-5.1,9c-1.4,2.2-3.2,4.2-5.1,5.9c-4.1,3.6-8.2,7.1-12.6,10.4c-1.4,1-3.4,1.2-5,1.9c-0.9,0.4-1.9,1.2-2.1,2
		c-0.5,2-1.3,4.1,0.1,6.1c0.2,0.3,0.2,0.8,0.1,1.1c-1,4.8,1.9,8,4.6,11.2c2.1,2.4,4.3,5.1,7.8,5.8c3.7,0.7,7.1-0.6,10.4-2
		c6.2-2.7,10.8-7.7,15.5-12.3c1.6-1.6,3-2.5,5-3.2c2.6-0.9,5-0.2,7.3,0.7c2.1,0.8,1.2,3.1,1,4.6c-0.2,1.7-1.2,3.2-2,4.8
		c-2.7,5.1-7.1,8.3-11.7,11.5c-4.7,3.2-9.8,5.7-15,7.4c-7.2,2.3-14.7,3-22.2,0.4c-5-1.7-8.4-4.9-11.6-8.6c-1.4-1.6-2.9-3.3-3.8-5.3
		c-1.3-3-2.2-6.3-3.2-9.5c-0.4-1.2-0.7-2.4-0.8-3.6c-0.2-1.9-0.3-3.9-0.2-5.8c0.1-2.5-0.7-3.8-3.2-4.4c-0.4-0.1-0.8-0.4-1.2-0.6
		c-1.2-0.5-2.6-0.8-3.7-1.5c-1.5-1-3-2.1-4.3-3.3c-1.3-1.3-2.5-2.7-4.1-4.5c-0.7,1.4-1.4,2.5-1.7,3.7c-1.7,6.7-4.7,12.8-8.2,18.7
		c-0.6,1.1-1.7,1.9-2.7,2.8c-2.6,2.2-5,4.5-7.8,6.4c-2.9,1.9-6.2,3.4-9.4,4.9c-1.8,0.8-3.8,1.6-5.7,1.6c-6.6,0.2-13.1-3.8-15.7-12.2
		c-1.6-5.1-2.1-10.1-0.8-15.2c1.6-6.4,3.1-12.7,4.6-19.1c0.3-1.3-0.6-2.3-2-2c-1.7,0.3-3.4,2.4-3.6,4.1c-0.6,6-1.8,11.7-4.2,17.3
		c-2.1,4.9-5,9.1-8.9,12.7c-4.6,4.3-8.4,9.4-13.2,13.3c-4.8,3.9-10.4,6.8-17.1,5.4c-7-1.5-13.5-4-17.8-10c-3.1-4.3-4.6-9.3-5.9-14.4
		c-0.3-1.2-0.6-2.4-1-4.1c-2.4,3.9-4.7,7.3-6.8,10.9c-1.7,2.8-3.9,5.1-6.6,7.1c-2.6,2-5.1,4.1-7.9,5.7c-3.9,2.2-8,4.1-12,6
		c-1.5,0.8-3.2,1.4-4.7,2.1c-5.1,2.5-10.6,3-16,1.5c-5.4-1.5-9.7-4.6-12.2-10c-2-4.4-3.4-8.8-3.5-13.6c0-0.2-0.3-0.5-0.5-0.6
		c-7,7.1-13.9,14.2-20.9,21.2c-4.6,4.6-9.5,8.8-13.9,13.5c-1.2,1.3-1.3,3.9-1.5,5.9c-0.5,5.5-0.9,11-0.9,16.5
		c0,4.3-0.5,8.5-1.8,12.6c-0.6,1.9-0.1,4.2-0.5,6.2c-0.9,5.2-1.6,10.6-3.2,15.6c-1.6,4.9-4.8,9-9.4,11.8c-1.9,1.2-3.6,2.8-5.7,3.5
		c-4.8,1.8-9.8,1.5-14.9,0.6c-2.7-0.4-4.3-1.8-5.7-3.6c-0.8-1-1.3-2.2-1.7-3.4c-1.9-6.2-1.5-12.6-0.5-18.7
		c1.1-6.6,3.2-13.1,5.1-19.6c0.7-2.6,2-5,3.2-7.4c3.5-7.1,9-12.8,14.3-18.6c0.7-0.7,1.6-1.2,2.3-1.9c1.9-2,2.9-4,2.3-7.1
		c-0.4-2.7,0.6-5.6,0.5-8.9c-2.1,2-4.1,4.2-6.4,6c-4.2,3.5-8.6,6.6-14.6,5.9c-3.4-0.4-7-0.2-10.2-1.3c-2.5-0.8-5.6-1.6-6.6-5
		c-0.5-1.6-1.6-3-2.3-4.6c-0.3-0.7-0.3-1.6-0.5-2.4c-0.1-0.4-0.4-1.1-0.7-1.2c-0.3-0.1-1,0.3-1.2,0.6c-1.8,3-3.4,6.1-5.4,8.9
		c-2.5,3.5-5.9,6.2-10.1,7.5c-2.9,0.9-5.9,1.8-8.8,2.6c-1.5,0.4-3.1,0.8-4.6,0.6c-3.7-0.5-7.4-1.1-11-2c-2.2-0.5-3.8-2.1-5.5-3.8
		c-3.6-3.6-4.1-8.1-5.1-12.5c-0.1-0.3-0.1-0.6-0.3-0.9c-1.7-3.4-1.2-7.1-1.5-10.8c-0.2-2.4,0.2-5.2-2.5-7.1
		c-0.5,0.9-1.2,1.7-1.4,2.5c-1.1,5.9-4.5,10.7-7,15.9c-1.5,3-4,5.5-6.1,8.3c-1.7,2.2-2.9,4.9-5,6.7c-5.4,4.8-11.1,8.8-19.1,8.6
		c-4.5-0.1-7.6-2-10.9-4.4c-4-2.9-5.5-7.2-6.9-11.5c-1.4-4.1-2.3-8.3-3-12.5c-0.5-3.1-0.2-6.4-0.3-9.6c0-0.9-0.1-1.7-0.1-2.6
		c-0.3-0.1-0.7-0.2-1-0.4c-0.5,0.7-1,1.4-1.4,2.2c-0.9,1.8-1.7,3.6-2.5,5.4c-1.2,2.5-2.4,5.1-3.8,7.5c-1.3,2.1-2.8,4.2-4.4,6.1
		c-2.3,2.8-4.9,5.4-7.2,8.2c-4.3,5.1-9.4,8.1-16.3,7.8c-3-0.1-5.9-0.4-8.5-2c-0.8-0.5-1.9-0.8-2.9-0.9c-4.3-0.4-6.1-4.3-9-6.6
		c-0.2-0.1-0.4-0.3-0.5-0.4c-2,2.2-3.6,4.7-5.9,6.3c-3.1,2.3-6.5,4.2-10.1,5.7c-5.9,2.5-11.9,1.1-17.8-0.2c-2.2-0.5-4.3-2.2-6.2-3.5
		c-1.4-1-3.1-2-3-4.3c0-0.2-0.8-0.4-1.1-0.7c-0.6-0.7-1.3-1.4-1.5-2.2c-0.5-2.5-0.7-5.1-1.1-7.6c0-0.3-0.3-0.5-0.4-0.9
		c-2.9,0.5-3.2,3.2-3.8,4.9c-1.7,4.3-4.2,7.8-7.7,11c-4.8,4.3-10.4,5-16.3,5.1c-7.2,0.2-13.4-2-18.3-7.6c-2.4-2.8-3.1-5.9-2.9-9.4
		c0.1-1.6-0.1-3.3-0.1-4.9c0-0.6,0.1-1.2,0.3-1.8c0.4-1.5,0.9-2.9,1.1-4.4c0.7-5.4,1.3-10.9,2.1-16.3c0.6-4.1,1.5-8.1,2.2-12.1
		c0.6-3.2,1.1-6.4,1.6-9.6c0.3-2.2-1.6-3.8-3.7-3.3c-4.7,1.1-7.2,2.4-7.2,6.9c0,1.3-0.9,2.7-1.2,4c-0.7,2.9-1.3,5.8-2.1,8.6
		c-0.4,1.3-1.4,2.4-1.9,3.7c-2.5,5.3-5.4,10.5-7.1,16.1c-1.2,3.8-3.7,6.9-4.9,10.7c-0.8,2.4-3.2,4.3-5.1,6.3
		c-1.8,1.9-3.9,3.5-5.7,5.4c-3.5,3.6-6.7,7.6-10.5,10.9c-1.7,1.5-4.4,2-6.7,2.6c-1.8,0.4-3.8,0.6-5.5,0.2c-2.2-0.6-4.3-1.9-6.3-3.1
		c-0.3-0.2-0.3-1.5,0-2.2c1-2.2,2.7-3.5,4.8-4.9c2.7-1.7,4.8-4.4,7.1-6.6c0.8-0.8,1.8-1.4,2.3-2.3 M271.1,677.6
		c0.1,6.6,1.9,10.7,3.8,14.6c0.1,0.2,1.4,0.3,1.7,0c1.2-1.1,2.4-2.2,3.3-3.6c1.1-1.7,1.8-3.6,3-5.3c1.5-2.1,3.4-3.9,4.8-6.1
		c1.5-2.3,2.7-4.8,4-7.3c0.1-0.2,0.2-0.4,0.3-0.6c2.8-8.7,7.7-16.5,10-25.3c0.5-1.8,0.9-3.7,1.7-5.3c2.8-6.1,3.8-12.5,5-19
		c0.4-1.9,0.5-3.9,1-5.8c0.9-3.5,2.1-7,3-10.6c0.6-2.4,1.1-4.8,1.7-7.2c0.6-2.4,1.2-4.7,1.7-7.2c0.1-0.4-0.7-1.4-1.2-1.4
		c-1.5-0.1-3,0.1-4.4,0.3c-9.1,1.5-18.3,1.5-27.3,3.7c-1.7,0.4-3.4,0.7-5.1,0.6c-1.8-0.1-2.3,0.9-2.3,2.2c-0.3,4.2-0.1,8.5-0.8,12.7
		c-0.8,4.4,0.1,8.8-0.8,13.1c-0.9,4.6-1,9.4-1.3,14.2c-0.2,3.6,0.1,7.2-0.3,10.8c-0.7,4.8-1.8,9.5-1.2,14.3c0,0.4,0,0.8-0.1,1.1
		c-0.2,1.7-0.6,3.3-0.6,5C270.6,670.4,270.9,675.1,271.1,677.6z M190.8,645c-1.3,0-2.2-0.1-3.1,0c-1,0.1-1.9,0.4-2.9,0.7
		c-0.4-0.8-0.7-1.4-1.1-2c-0.9-1.2-3.1-1.3-3.8-0.3c-1.2,1.9-2.5,3.9-3.6,5.9c-1,1.8-1.9,3.7-3,5.5c-1.2,2.1-2.5,4.1-3.7,6.2
		c-2.8,4.8-3.9,10.2-3.9,15.6c0,4.2-0.4,8.6,1.7,12.8c1.2,2.3,2.1,4.8,4.5,5.1c2.3,0.3,4.7-0.9,6.3-3.2c1.6-2.3,2.1-5.3,4.7-7
		c0.3-0.2,0.3-0.7,0.5-1c0.5-1,1.1-1.9,1.5-2.9c1.4-3.7,3.1-7.3,3.9-11.2c0.7-2.9,0.2-6,0.3-9.1c0-1.5-0.2-3,0-4.5
		C189.6,652.1,190.3,648.6,190.8,645z M580.8,646c-5.5-0.4-10.7-0.6-15.9-1.4c-3.6-0.5-7-1.8-9.9-4.3c-1.5-1.3-2.4-1.2-3.1,0.7
		c-0.6,1.9-0.5,4.2-1.3,6c-1.7,3.6-0.8,7.3-0.1,10.7c0.8,3.9,2.7,7.7,4.3,11.4c1.6,3.5,6.2,4.2,8.3,1.2c2.6-3.8,6.1-6.5,9.3-9.7
		C576.7,656.4,579.1,651.2,580.8,646z M583.5,622.1c-0.7-4.7-1.8-9-4.6-12.6c-0.8-1.1-2.4-2.9-4-1.5c-2.1,1.9-4.1,4.1-5.4,6.6
		c-2.4,4.6-2.7,9.5-1.4,14.5c0.7,2.8,2.5,4.3,4.7,4c3.4-0.5,6.6-1.5,9.3-3.4c0.6-0.4,1.2-1.3,1.3-2
		C583.6,625.8,583.5,623.8,583.5,622.1z M407,723.9c-0.3-0.1-0.7-0.1-1-0.2c-0.7,1.8-1.3,3.6-2,5.3c-3.2,7.3-5.1,15-6.3,22.9
		c-0.4,2.5-0.6,5.1-0.7,7.7c0,0.8,0.7,1.7,1.3,2.2c0.3,0.2,1.4-0.4,1.9-0.9c0.8-0.8,1.7-1.8,2-2.8c1.4-4.8,3-9.6,3.7-14.5
		c0.8-5.7,0.8-11.5,1.2-17.3C407.2,725.5,407.1,724.7,407,723.9z M498.3,565.1c-0.3-0.1-0.6-0.1-0.8-0.2c-0.8,1.8-1.6,3.7-2.5,5.5
		c-1.5,3.5-3.4,6.8-4.5,10.5c-2.3,7.7-4.2,15.4-6.2,23.2c-0.1,0.4,0.2,0.9,0.3,1.4c0.4-0.2,1.1-0.3,1.3-0.7c0.4-0.8,0.4-2.1,1-2.5
		c3.7-2.9,4.6-7.4,6.4-11.3c3.3-7.1,4.4-14.8,5-22.6C498.4,567.3,498.3,566.2,498.3,565.1z M701.4,609.5
		c-7.7,8.1-9.6,18.5-12.1,28.6c1.5-0.9,2.5-2,3.7-3.1c5.1-4.8,8.4-10.7,10.4-17.4C704.1,615.1,703.3,611,701.4,609.5z"/>
	<path d="M303.9,382.2c-1.6-0.2-3.4-0.9-4.8-0.4c-2.9,0.9-5.5-0.3-8.3-0.5c-1.2-0.1-2.4-0.3-3.6-0.1c-2.5,0.3-5,0.3-7.5,0.1
		c-6.1-0.7-12.1-0.3-18.2,0c-1.2,0.1-2.8-1.1-3.6-2.2c-0.7-1.1-0.6-2.7-0.8-4.2c-0.3-2-0.7-4-0.7-6c0-2,0.2-4.1,0.4-6.1
		c0-0.6,0-1.6,0-2.2c-0.5-3.8-1-3.3-1.4-7c-0.4-4.6-0.5-9.2-0.9-13.8c-0.4-4.7-1.1-9.4-1.6-14.1c-0.4-3.7-0.8-7.4-1.3-11.1
		c-0.3-2.1-0.7-4.2-1.1-6.7c2.1,0.2,3.8,0.7,5.5,0.6c6.3-0.4,12.5-0.9,18.8-1.4c5.1-0.5,10.2-1.1,15.3-1.8c3.5-0.5,6-2.7,7.4-5.8
		c0.5-1.1-0.3-2.7-0.2-4c0.2-2.1-0.9-2.5-2.6-2.7c-1.2-0.1-2.4-0.7-3.6-1.1c-0.4-0.1-0.7-0.3-1.1-0.3c-2.5,0.2-4.9,0.5-7.4,0.7
		c-6.2,0.5-12.4,1.1-18.6,1.6c-3.8,0.3-7.5,0.9-11.4,0.4c-4-0.6-4.5-0.2-5.2-4.3c-0.4-2.2-0.5-4.4-1-6.5c-1.2-5.5-2.6-11-3.9-16.5
		c-0.4-1.6-1-3.2-0.8-4.8c0.3-2.3,0-4.1-1.5-5.3c0.2-0.9,0.5-1.6,0.4-2.2c-0.3-2.7-0.8-5.3-1.2-8c-0.4-2.5,1.3-4.9,3.9-5.2
		c2.7-0.4,5.4-1,8.1-1.5c2.8-0.5,5.7-1.3,8.5-1.3c5,0,9.9,0.5,14.9,0.9c3.4,0.3,6.7-0.3,9.5-2c1.7-1.1,3.3-2.9,4.1-4.7
		c0.6-1.4,0.1-3.4-0.3-5c-0.4-1.6-2-0.9-3.2-1.1c-0.4,0-0.7-0.4-1.1-0.4c-2.3-0.3-4.6-0.7-6.9-0.8c-3.7-0.1-7.5,0.1-11.2,0
		c-3.8-0.1-7.7-0.9-11.4-0.6c-5.6,0.5-11.2,1.6-16.8,2.4c-0.9,0.1-2.2,0.2-2.6-0.3c-2.1-2.2-4.8-2.4-7.5-2.8c-3.8-0.7-8.6,2.4-9.8,6
		c-0.6,2,0.4,3.4,0.9,5.1c1.9,5.8,3.6,11.6,5.4,17.4c0.2,0.7,0.8,1.4,0.9,2.1c0.5,2.7,0.8,5.5,1.4,8.2c0.3,1.5,1.2,2.9,1.5,4.4
		c0.3,1.6-0.1,3.4,0.2,5c0.9,4.5,2,8.9,2.9,13.4c1.1,5.2,2.1,10.3,3.1,15.5c0.6,3.3,1.3,6.6,1.8,9.9c0.7,4.4,0.5,8.9,1.6,13.4
		c1,4.3,1.3,8.9,1.8,13.4c0.4,4.2,0.6,8.5,0.8,12.8c0.1,1.8,0.1,3.7,0.3,5.5c0.3,3.2,0.8-0.7,1,2.5c0.2,4.5,0,9.1,0.4,13.6
		c0.5,5.3,1.6,13.5,2,18.8c0.2,2.5,1.3,4.1,3.4,4.8c1.5,0.5,3.3,0.8,4.8,0.6c4.2-0.5,8.3-2,12.5-2c7.8-0.1,15.6,0.6,23.5,0.9
		c4.7,0.2,9.3,1.5,14.3,0.2c0.6-0.2,1-0.3,1.4-0.6c0,0,0,0,0,0c0.5-0.5,1.6-12.1,1.4-12.3C304.5,382.4,304.4,382.3,303.9,382.2z"/>
	<path d="M452.7,302.2c-1-7.5-2.2-14.9-4.6-22.2c-2-6-4.6-11.5-7.8-16.8c-1.1-1.9-2-3.9-3.2-5.8c-2.4-4.1-4.8-8.1-7.4-12.1
		c-1.1-1.6-2.6-2.9-3.9-4.3c-3.1-3.3-5.9-6.9-9.3-9.8c-2.7-2.3-6-3.7-9.1-5.4c-0.4-0.2-1.2,0.2-1.5,0c-3.4-3-7.7-2.7-11.8-3
		c-1.8-0.1-3.7,0.1-5.4-0.4c-0.7-0.2-1-1.7-1.5-2.7c-1.1-2.3-5.7-4.7-8.1-4.4c-1,0.1-2.1,0.2-3.1,0.2c-1.7,0-4.8,3-4.7,4.8
		c0.2,3,0.9,5.9,0.7,8.8c-0.3,3.3-0.6,6.3,1.6,9c0.2,0.3,0.1,0.8,0.2,1.1c0.2,2.9,0.3,5.9,0.7,8.8c0.7,5,1.5,10,2.2,15
		c0.3,2.3,0.6,4.6,1,6.9c0.5,2.9,1.1,5.7,1.5,8.6c0.6,4.6,1,9.3,1.5,13.9c0.5,4.7,1.1,9.3,1.4,14c0.2,2.9,0,5.9,0.1,8.8
		c0.1,3,0.6,6,0.7,9c0.1,2.9-0.2,5.8,0,8.7c0.4,5.2,0.9,10.4,1.5,15.6c0.2,2,0.8,3.9,1.1,5.8c0.5,3.6,0.9,3.1,1.3,6.7
		c0.3,2.6,0.3,3.5,0.4,6.1c0.1,0.6,0.1,2.4,0.1,2.8c0.3,3,4,19.3,5.1,29.4c0.2,0.7,0.4,1.7,0.7,2.3c1.1,2.1,3.9,3.4,6.2,3.6
		c0.9,0.1,1.7-0.2,2.6-0.2c2.9,0.1,5.4-1.8,6.3-4.5c0.3-0.7,1-1.6,1.7-1.9c1.9-0.8,4-1.2,5.9-2.1c3.6-1.6,7.3-2.8,10.3-5.9
		c1.8-1.9,3.5-3.7,5.1-5.8c3.1-4.1,6.7-7.8,8.6-12.7c0.4-0.9,0.7-1.9,1-2.9c1.3-3.4,2.9-6.7,3.7-10.3c1.4-6.6,2.3-9.2,3.4-15.9
		c0.9-5.7,1.9-11.3,2.8-17c0.5-3,0.8-6.1,1.4-9.1C453.2,312.4,453.4,307.3,452.7,302.2z M392,260c-0.4-1.4-0.3-2.1-0.5-3.5
		c-0.8-6.4-1.6-12.8-2.3-19.2c-0.1-0.6,0.7-1.6,1.2-1.8c3.6-0.8,7.1,0.1,9.8,2.1c4.7,3.6,9.4,7.5,13.4,11.9c3.6,4,6.2,8.8,9.2,13.3
		c2.4,3.8,4.3,6.3,6.2,10.4c1.9,4,3.8,9.6,5.1,13.8c1,3.4,2,6.9,2.4,10.4c0.5,4.5,0.6,9.2,0.3,13.7c-0.4,6.7-1,13.4-1.8,20
		c-0.6,4.9-1.8,9.8-2.6,14.8c-0.5,2.9-0.8,5.9-1.5,8.7c-1.5,6.7-3,9.5-6.9,15.4c-0.6,0.9-1,2-1.3,3c-0.9,2.7-3,4.4-5.2,6.1
		c-0.8,0.6-1.1,1.9-1.8,2.4c-2.1,1.3-4.4,2.5-6.7,3.4c-1.3,0.5-2.6,0.2-2.9-1.7c-0.7-4.6-1.5-9.1-2.3-13.6c-0.4-2.1-1.2-4.2-1.5-6.3
		c-0.6-3.5-1-7-1.4-10.5c-0.7-5.3-1.4-6.5-1.9-11.8c-0.6-6.7-0.9-13.4-1.2-20.1c-0.4-8.6-0.5-17.3-1.2-25.9
		c-0.4-5.8-1.6-11.6-2.4-17.4c-0.7-5-1.2-10.1-1.7-15.1"/>
	<path d="M374.4,363.7 M377.9,355.2c-0.7-2.3-1.3-4.6-2.1-6.9c-1.2-3.5-2.9-6.8-3.9-10.4c-1.6-5.7-1.7-6.6-3.9-15.9
		c-0.5-2.2-0.6-4.5-1.3-6.6c-1.3-3.8-3-7.5-4.2-11.3c-2.1-7.2-4.1-14.4-5.6-21.7c-1.3-6.4-4.4-12.3-5.4-18.8
		c-0.6-3.9-2.4-7.5-3.6-11.3c-1.4-4.6-2.3-9.3-3.9-13.8c-1.6-4.8-3.8-9.4-5.6-14.1c-1.1-2.9-3.6-4.8-6.3-4.4
		c-1.9,0.3-3.8,0.6-5.7,0.8c-3.7,0.5-5.7,2.6-5.8,6.4c-0.2,6-0.2,12-0.3,18c-0.1,7.6,0,15.2-0.1,22.9c0,5.7-0.1,11.4-0.1,17.1
		c0,1.3-0.2,2.6-0.3,4c-0.3,3.1-0.7,6.2-0.9,9.3c-0.3,3.7-0.5,7.4-0.7,11.2c-0.4,6.3-0.8,12.6-1.4,18.8c-0.2,1.9,0.2,4.1-1.8,5.5
		c-2.7,2-2.9,4.5-0.7,7c1.1,1.3,1.7,3.6,1.4,5.8c-0.3,1.7-0.7,5.2-0.8,6.9c-0.2,4.3-0.1,1.6-0.4,5.9c-0.1,1.1-0.2,3-0.2,4
		c-0.1,6.3-0.7,11.6-1.9,17.6c-0.2,1.1-0.3,1.2-0.6,1.9c-1.2,4.2-1.1,10.9-1.5,13.6c-0.1,0.3-0.1,0.9,0,1.4c0.1,0.6,0.2,1.1,0.3,1.5
		c0.7,2.4,2.3,3.1,5.3,2.9c0.7-0.1,1.4-0.1,2.1,0c3,0.3,6-1.5,6.8-4.4c0.4-1.3,0.5-2.6,0.7-3.9c0.5-3.4,0.9-6.8,1.4-10.2
		c0.4-3.3,0.9-6.5,1.3-9.8c0.3-3,0.6-6,0.9-9c0.4-3.9,1.1-7.9,1.4-11.8c0.3-4.7,0.4-5.3,0.5-10.4c4.1-0.2,7.8-0.5,11.4-0.6
		c4.1-0.1,8.3,0,12.4-0.3c2-0.2,3.1,0.4,3.6,2.1c1.1,3.5,2.2,7.1,3.1,10.7c1.6,6.2,3.2,8.5,4.6,14.7c0.7,3.1,2.7,5.9,1.6,9.3
		c-0.1,0.4,0.2,0.9,0.4,1.3c2.4,5.7,4.9,11.3,7.2,17c1.1,2.6,5,4.6,7.7,3.8c1.6-0.5,3.3-0.8,5-1.3c0.5-0.2,0.3-2.7,0.3-2.9
		c-0.6-4-5.2-18.2-7.2-28.1 M351.4,328.4c-1.9,0-3.7-0.4-5.6-0.4c-1.8-0.1-3.5,0-5.3,0.1c-2.4,0.1-4.7,0.3-7.1,0.2
		c-0.5,0-1.2-1.2-1.3-1.9c-0.1-1.6,0.3-3.3,0.3-4.9c0-0.6,0.4-1.3-0.2-2.4c2-2.1,0.7-5.1,0.9-8.1c0.5-5.9,1.2-11.8,1.7-17.6
		c0.3-3.2,0.2-6.4,0.4-9.5c0.2-3.7,0.6-7.3,0.9-11c0.3-0.1,0.5-0.2,0.8-0.2c0.5,0.8,1.1,1.4,1.4,2.3c0.8,2.6,1.5,5.3,2.3,7.8
		c0.2,0.7,0.3,1.1,0.6,2c0.2,1.3,0.6,3,1,4.5c1.5,6.1,3.2,12.2,5,18.3c1.5,5.1,3.2,10.2,4.9,15.3c0.4,1.3,0.9,2.5,1.1,3.8
		C353.7,328,352.6,328.4,351.4,328.4z"/>
	<path d="M952.1,644.6c-1.2,1.1-2.2,1.8-2.7,2.7c-1.9,3-3.7,6.1-5.3,9.2c-1.6,3.2-3.2,6.6-4.3,10c-0.9,2.7-0.9,5.6-1.5,8.4
		c-0.4,1.8-0.7,3.7-1.5,5.4c-1.2,2.6-3.8,3.2-6.3,3.8c-6.5,1.5-10.2-4.3-9.6-10.7c0.5-4.7,1.6-9.1,3.2-13.5c0.7-1.8,0.5-4,0.7-6
		c0.2-2.1,0.4-4.1,0.5-6.2c0.1-1,0.1-2,0.1-3c0.1-2.4,0.2-4.8,0.2-7.2c0-0.8-0.1-1.6-0.2-2.3c-0.3-0.1-0.5-0.2-0.8-0.3
		c-1,1.3-2,2.7-3,4.1c-1.6,2.3-3.1,4.7-4.6,7c-2.1,3.3-5.1,6.1-5.9,10.2c-0.2,0.8-1,1.6-1.4,2.3c-1.9,3.2-2.2,6.6-2,10.3
		c0.1,2-0.9,4.1-1.3,6.2c-0.2,1.3-0.7,2.8-0.3,3.8c1,2.1-0.4,2.7-1.5,3.5c-2.8,2.1-5.5,4.3-9.5,4c-3.2-0.3-5.6-1.7-7.4-4
		c-0.8-1.1-0.6-3.1-0.5-4.7c0.1-3.5,0.3-6.9,0.5-10.4c0-0.7,0.2-1.4,0.6-2c2.9-4.5,3-9.6,3.6-14.6c0.1-0.5,0-0.9-0.1-1.4
		c-0.1-0.3-0.2-0.6-0.4-1.1c-0.9,0.3-1.9,0.5-2.6,1c-2.8,2-5.5,3.7-7.2,7.2c-2.2,4.4-4.1,9.1-7.2,13.2c-2.9,3.9-5.8,7.5-10,10
		c-1.6,0.9-2.8,2.5-4.7,4.3c-2.2,0.6-5.2,1.5-8.3,2.1c-5.1,1-10,0.2-14.7-2.4c-4.4-2.4-7.1-6.2-9.1-10.6c-0.3-0.7-0.9-1.4-1.7-2.7
		c-2.1,2.3-4,4.1-5.5,6.2c-2.7,4-6.6,6.5-10.4,9.2c-1.6,1.2-3.5,2.1-5.3,3.1c-0.4,0.2-0.8,0.6-1.2,0.6c-3.9-0.1-7.8,0.3-11.5-0.6
		c-8-1.8-13-7.4-16.7-14.6c-2.3-4.4-3-9-3.6-13.6c-0.5-4.5,0.3-9.4,1.3-13.9c1.5-6.9,3.9-13.5,8-19.3c1.5-2.1,2.7-4.4,3.7-6.8
		c1.9-4.4,5.8-7.3,9.6-8.7c4-1.5,8.8-2,13.5-0.3c2.8,1.1,4.8,2.6,6.1,5.2c0.2,0.3,0.4,0.8,0.7,0.9c3.4,2.1,3.8,5.9,4.3,9.2
		c0.8,4.8-5.7,11.1-10.9,8.1c-0.3-0.2-0.8-0.3-1.1-0.2c-3.5,0.6-4.5-2.2-5.9-4.4c-0.4-0.6-0.6-1.5-1.1-2c-0.8-0.8-1.6-0.8-2.2,0.5
		c-1.3,2.8-3.2,5.4-4.1,8.4c-1.6,4.9-4.6,9.5-3.8,15.1c0.4,2.6-0.6,5.4-0.3,8c0.2,2.3,1.1,4.7,2.1,6.9c0.9,2,2.2,3.7,3.3,5.6
		c2,3.2,5.5,3.7,7.8,1c6-7,13.2-12.7,19.9-18.9c2.9-2.7,5-5.8,6.5-9.6c1.4-3.8,3.2-7.6,4.9-11.3c2.2-4.6,4.3-9.3,7.1-13.5
		c1.8-2.7,4.9-4.5,7.5-6.7c2.1-1.8,4.3-3.3,6.2-5.3c2.4-2.5,5.3-3.1,8.5-3c1.9,0,3.8,0.1,5.7,0.3c2.4,0.3,4.7,0.6,6,3.1
		c0.3,0.5,1.4,0.6,1.7,0.7c0.9,1.2,1.6,2.2,2.3,3.1c1.5,1.9,3.3,3.6,4.4,5.8c1.2,2.5,1.8,5.4,2.6,8.2c0.1,0.4-0.1,0.8,0.1,1.2
		c0.6,1.1,1.3,2.2,1.9,3.3c0.9-1,1.8-2,2.6-3c0.6-0.8,1-1.8,1.8-2.4c2.8-1.9,3.5-5.1,4.7-7.8c0.8-2,0.6-4.5,0.8-6.8
		c0-0.4,0.2-0.9,0.3-1.3c1.8-4.5,5.4-6.5,10.8-6.3c1,0,2,0,3.6-0.5c1.2,2.7,2.6,5.3,3.5,8c0.5,1.5-0.1,3.4-0.2,5.1
		c-0.1,0.7-0.4,1.4-0.4,2.1c0.1,1.1,0.5,2.2,0.8,3.3c0.9-0.4,1.8-0.8,2.7-1.3c3.8-2.3,6.4-6.1,10.7-7.6c0.6-0.2,1.1-0.4,1.7-0.5
		c1.2-0.1,2.4,0,3.5-0.1c5.6-0.3,8.5,2.9,7.9,8.6c-0.3,2.2-0.4,4.5-0.3,6.7c0,0.9,0.6,1.8,1,2.8c4.7-4.3,9-8.4,13.6-12.2
		c1.8-1.5,3.8-3.1,6.5-2.7c0.6,0.1,1.2-0.1,1.9-0.2c5.2-1.3,8.4,2.1,7.9,7.3c-0.6,6-3,11.6-3.3,17.8c-0.2,3.7-1.9,7.3-2.8,11
		c-0.4,1.6-0.4,3.3-0.5,5c-0.3,3.3-0.7,6.5-0.7,9.8c0.1,4.8,2.2,8.8,6.2,11.3c2.6,1.6,5.2-0.2,7.3-1.8c2.1-1.6,3.8-3.7,5.7-5.6
		c0.4-0.4,0.8-0.8,1.2-1.1c1.7-1.2,3.7-2.1,5.1-3.5c2.9-3.2,8.3-1.2,10.1,1.5c0.9,1.4-0.5,7-1.8,8.1c-2.7,2.3-6.1,4.2-7.8,7.1
		c-1.7,3-4.9,3.4-6.9,5.8c-1.3,1.6-4.5,1.8-6.8,2.6c-6.4,2.1-12.2,0.9-18-2.3c-3.6-2-6.1-4.9-8-8.3c-3.2-5.8-3.3-12-2.6-18.4
		c0.4-3.3,0.6-6.6,1-9.9C951.2,649.4,951.6,647.4,952.1,644.6z M846.5,649.9c-0.9,1.4-2.1,2.3-2,3.1c0.3,2.7-2.1,4.6-1.3,7.7
		c0.8,3.2,0.9,6.6,3.1,9.3c2.6,3.2,4.8,3.1,7.5,0c2-2.3,3.9-4.6,5.6-7.1c1-1.5,1.5-3.2,2.3-5C855.8,656.5,849.9,655.9,846.5,649.9z
		 M869.1,634.3c-0.4-3.5-0.5-6.1-1.1-8.5c-0.2-1.1-1.3-2.1-2.2-2.8c-0.2-0.2-1.7,0.7-2.1,1.4c-2.7,4.3-3.1,9.2-3.7,14
		c0,0.3,0.1,0.6,0.3,0.9c1.2,1.6,2.3,3.3,3.7,4.7c1.1,1.1,3.2,0.3,3.5-1.3C868.1,639.7,868.7,636.5,869.1,634.3z"/>
	<path d="M230.3,399c-4.3-1.9-6.5-5.7-8.4-9.9c-3-6.5-6.1-12.9-9.4-19.3c-1.6-3.1-3.9-1.8-5.6-4.8c-1.4-2.5-2.3-2.3-3.6-4.9
		c-1.4-2.7-3-5.3-4.5-7.9c-1.1-1.9-2.3-3.8-3.3-5.7c-2.1-3.9-4.2-7.8-6.3-11.7c-0.9-1.5-2-2.9-2.9-4.4c-1.2-2-2.3-4.2-3.6-6.2
		c-2.7-4-5.5-7.9-8.2-11.8c-1.2-1.7-2.3-3.6-3.7-5.2c-2.7-2.9-5-2.4-8.2-0.2c-3.5,2.4-4.3,5.2-3.5,9.1c0.8,4.2,1.2,8.5,1.9,12.7
		c0.6,3.8,1.6,7.5,2.1,11.3c0.5,3.6,0.4,7.2,0.8,10.9c0.4,3.8,1,7.6,1.5,11.4c0.4,3.3,0.9,6.6,1.2,9.9c0.1,1-0.5,2.1-0.4,3.1
		c0.3,3,0.9,6,1.3,9.1c0.4,3.3,0.8,6.5,1,9.8c0.2,3-3.5,6.2-6.5,6.9c-2.8,0.7-5.2,0.1-7.3-1.3c-1.2-0.8-2-2.6-2.4-4.2
		c-0.7-3.1-0.9-6.3-1.2-9.5c-0.4-4.4-0.6-8.8-1.1-13.2c-0.7-5.4-1.7-10.8-2.4-16.2c-0.3-2.2,0-4.4-0.1-6.6c-0.1-2-0.3,4-0.6,2
		c-1.1-8.2-2.1-24.4-3.3-32.5c-0.3-1.9-1.1-3.7-1.4-5.6c-0.3-1.8-0.3-3.6-0.2-5.4c0.2-2.5,0.5-4.8-0.6-7.3c-1-2.4-0.7-5.2-1.1-7.8
		c-0.7-4.4-2.1-8.8-1.9-13.1c0.1-3.5-2-6.1-2.2-9.3c-0.1-1,0.6-2,0.5-3c-0.6-5.8-1.1-11.7-2.1-17.5c-0.7-4.1-2.2-8.1-3-12.2
		c-0.7-3.5-0.8-7.1-1.1-10.6c0-0.3,0.2-0.6,0.3-0.9c1.3-2.7,5.4-5.1,8.3-4.6c4.5,0.8,8.5-0.7,12.4-2.6c1.4-0.7,3.2-0.7,4.9-0.8
		c2.2-0.2,4.4-0.3,6.6-0.2c1.2,0.1,2.3,0.9,3.4,1.3c3.3,1.2,6.7,2,9.8,3.5c4,1.8,8.1,3.8,11.6,6.4c1.2,0.9,3.9,1.4,3.6,4
		c0,0.1,0.1,0.3,0.3,0.4c3.4,2.6,5,6.3,6.5,10.1c1.8,4.5,2.3,9.2,2,14c-0.2,3.5-0.5,7-0.9,10.4c-0.1,0.9-0.5,1.8-1,2.6
		c-2.8,4.2-5.8,8.2-8.4,12.4c-1.8,2.9-3.8,5.4-6.5,7.5c-1.9,1.4-1.3,5.5,0.9,6.8c2.9,1.7,4.6,4.4,6.4,7.1c2.7,4.2,5.5,8.3,8.1,12.5
		c2.3,3.6,4.6,7.2,6.8,10.9c2.5,4.2,4.8,8.6,7.2,12.8c2.7,4.7,5.6,9.3,8.1,14.1c3,5.8,5.7,4.7,8.6,10.6c1.9,4,3.6,8.1,6,11.8
		c1.3,2,1.7,4.3,3.4,6.3c1.6,1.9,1.7,5.3,1.9,8c0.1,2-3.7,5.1-5.8,5.5C233.4,398.2,232,398.6,230.3,399z M183.4,259
		c-0.5-6.7-3.2-13.5-8.2-17.7c-1.8-1.5-3.8-2.7-5.7-3.9c-4.2-2.5-8.1-5.6-13.7-3.4c-3.6,1.4-7.2,5.2-6.6,9.1
		c0.2,1.8,1.3,3.5,1.6,5.3c0.4,3.2,0.5,6.4,0.8,9.6c0.7,6.5,0.7,13.1,2.9,19.5c1.1,3.3,0.3,7.3,2.2,10.6c0.3,0.5-0.1,1.2,0,1.8
		c0.1,0.8,0.2,2.1,0.7,2.3c0.6,0.3,1.9,0,2.4-0.5c1.9-2.4,4.5-3.9,6.9-5.7c2.7-1.9,5.4-4.1,7.6-6.5c2-2.3,3.5-5,5.2-7.6
		C181.9,267.7,182.7,263,183.4,259z"/>
	<path d="M557.9,240.7c1.6,2.1,2.4,12.5,0.7,14c2.7,3,1.7,6.8,2,10.3c0.6,5.6,1.1,11.3,1.5,16.9c0.4,5,0.6,9.9,1,14.9
		c0.1,1.7,0.9,2.4,2.8,2.3c4.2-0.4,8.5-0.8,12.8-0.8c2.3,0,4.6,0.9,7,1c1.9,0.1,3.7-0.4,5.6-0.6c1.9-0.1,3.7-0.2,5.6-0.2
		c3.6,0,4.6-1.6,3.6-5.1c-0.3-0.9,0.2-2,0.3-2.9c0.2-2.4,0.6-4.7,0.7-7.1c0-1.2-0.5-2.5-0.6-3.8c-0.7-6.3-1.3-12.5-1.9-18.8
		c-0.4-4.1-0.7-8.2-1.2-12.2c-0.4-3.9-1.1-7.8-1.4-11.8c-0.4-3.9-0.5-7.8-0.8-11.7c-0.2-1.9-0.5-3.8-0.9-5.7
		c-1.2-5.5,0.8-7.5,5.5-8.9c1.6-0.5,3.1-1,4.6-1.5c3.1-1.1,7.9,2.4,8,5.8c0.2,5.1,0.4,10.1,0.8,15.2c0.5,7.2,1.1,14.4,1.8,21.7
		c0.5,5.4,1.5,10.7,1.9,16.1c0.5,8,0.7,16,1,24.1c0.1,3.7,0,7.4,0,11.1c0,7.1,0,14.1,0.2,21.2c0.1,4.6,0.7,9.2,0.9,13.7
		c0.2,3.6,0.3,7.2,0.5,10.9c0.2,2.8,0.4,5.6,0.7,8.4c0.4,4.3,0.9,8.5,1.3,12.8c0.4,3.9,1.1,7.8,1.2,11.7c0.1,3,0,6.3-1,9.1
		c-1.7,4.9-7.1,7-12,5.3c-0.8-0.3-1.8-1.3-2-2.1c-1.2-4.7-2.6-9.4-2.5-14.4c0.1-3-0.6-6-0.9-9c-0.3-3.1-0.6-6.3-0.9-9.4
		c-0.4-4-1-8-1.2-12c-0.2-3.8,0-7.6-0.2-11.4c-0.1-2.8-0.5-5.6-0.7-8.3c-0.1-1.5,0.3-3.1,0.1-4.6c-0.4-3.7,0.5-7.4-0.4-11.1
		c-0.3-1.3-0.7-2-2-2c-2.7,0-5.5,0.1-8.2,0.2c-3.2,0.1-6.4,0-9.6,0.2c-4,0.2-7.9,0.7-11.9,1.1c-1.4,0.1-2.8,0.3-4.6,0.5
		c-0.1,0.2-0.4,0.8-0.4,1.4c0,2.4,0.1,4.8,0.2,7.2c0.4,6.1,0.8,12.1,1.2,18.2c0.2,3.7,0.6,7.5,0.7,11.2c0,3.6-0.4,7.1-0.4,10.7
		c0,2.7,0.6,5.4,0.8,8c0.3,2.6,0.4,5.3,0.7,7.9c0.5,3.8,1,7.7,1.7,11.5c0.6,3.1-0.6,5.4-2.8,7.2c-3.6,2.8-8.5,3.2-12.3,1.1
		c-1-0.6-1.4-2.5-1.9-3.9c-1.3-3.9-1.2-7.9-1.1-11.9c0-1.9-0.7-3.8-0.9-5.8c-0.4-5.2-0.7-10.4-0.9-15.5c-0.2-5.9,0-11.7-0.2-17.6
		c-0.1-4-0.3-8.1-0.6-12.1c-0.2-2.8-0.5-5.5-0.7-8.3c-0.3-5.2-0.6-10.4-1-15.6c-0.3-4.2-0.7-8.4-1.1-12.5
		c-0.6-5.6-1.3-11.1-1.8-16.6c-0.3-3.8-0.2-7.7-0.5-11.5c-0.5-6.4-1.3-12.7-1.9-19.1c-0.5-5.3-1-10.7-1.5-16
		c-0.3-3.5-0.3-7-0.9-10.5c-0.5-3.1,0.4-6.8,3.2-7.7c3.5-1.1,7.2-3.2,11.1-1c2.2,1.2,3.1,3.3,3.2,5.7c0.4,6.6,0.8,13.2,1.2,19.9
		C558.5,238.6,558.1,239.4,557.9,240.7z"/>
	<path d="M861.5,212.3c0.4,0.1,1.3,0,1.6,0.4c2.6,3.4,5.5,6.7,7.6,10.5c2.1,3.8,3.5,7.9,4.7,12.1c0.8,2.8,0.7,1.9,1.4,4.8
		c0.7,2.9,2,5.7,2.5,8.7c0.8,4.3,1.3,8.7,1.8,13.1c0.6,5.1,1.2,10.2,1.6,15.3c0.3,4.1,0.3,8.2,0.2,12.4c-0.1,3.8-0.6,7.5-0.9,11.3
		c-0.6,6.9-0.9,24.9-1.7,31.7c-0.8,6.1-2,12.2-3.3,18.3c-1,4.6-2.2,9.2-3.7,13.7c-1,3.2-2.8,6.1-3.8,9.2c-1.7,5.3-4.3,9.9-8.8,13.2
		c-4.1,3-7.9,6.7-12.4,9c-6.7,3.5-14,4.2-20.6-0.4c-2.4-1.6-4.5-3.9-5.7-7c-1.1-2.9-3.3-5.3-4.8-8.1c-1.5-2.8-2.4-16.8-3.9-19.5
		c-2.8-5-2.8-10.9-5.1-16.1c-0.2-0.5-0.4-1.3-0.2-1.8c1.1-2.4-0.5-4.5-0.8-6.7c-0.4-2.4-0.5-4.8-0.7-7.2c-0.2-1.6-0.2-3.3-0.5-4.9
		c-0.6-3.2-1.6-6.4-1.9-9.7c-0.4-4.4-0.4-8.8-0.5-13.2c0-1.3-0.3-2.5-0.2-3.7c0.2-3.4,0.6-6.8,0.7-10.2c0.1-2.3-0.2-4.6-0.1-6.9
		c0.2-4,0.5-8.1,0.8-12.1c0.1-2.3,0.2-4.5,0.4-6.8c0.1-1.2,0.1-2.5,0.3-3.7c0.3-1.7,0.6-3.5,1-5.2c0.3-1.6,0.9-3.1,1-4.7
		c0.5-7.7,2.7-15,6.1-21.8c2.1-4.2,5-11.4,7.4-15.5c3-3.7,5.4-5.3,9.3-7c2.5-1.1,1.4-0.6,4.5-2.2c7.5-2.5,7.9-0.9,13.5,0.7
		c4.5,1.3,8,4.2,11.4,7.2C860.4,210.1,860.8,211.3,861.5,212.3z M842.5,216c-1.7,2-3,3.7-4.4,5.2c-1.2,1.3-2.8,2.2-3.9,3.6
		c-1.4,1.8-2.6,3.9-3.4,6c-2.1,5.5-5.2,6.6-5.8,12.7c-0.4,4-1.6,7.9-2.3,11.9c-0.4,2.5-0.7,5-0.8,7.5c-0.2,3-0.1,6-0.3,9
		c-0.3,4-0.9,8.1-1.1,12.1c-0.2,3.6-0.1,7.2-0.1,10.8c0,2.9-0.2,5.9,0,8.8c0.5,5.9,1.2,22.7,1.9,28.6c0.5,4.1,0.9,8.2,1.7,12.2
		c0.9,4.9,2.1,9.8,3.3,14.7c0.3,1.1,0.6,2.3,1.1,3.3c1.2,2.7,2.9,5.2,3.8,8c1.2,3.8,3.5,7,5.8,10.1c1.3,1.7,2.7,2.6,5.2,2.1
		c3-0.7,4.6-3,6.2-5c1.7-2,2.7-4.7,3.7-7.2c1-2.6,1-5.7,2.4-7.9c2.3-3.6,3.1-7.5,4-11.5c1.1-5.4,2.3-10.8,3.5-16.3
		c0.1-0.6,0.5-1.3,0.3-1.8c-0.9-2.5,0.1-15.6,0.9-17.8c0.2-0.6,0.1-1.2,0.2-1.8c0.3-4,0.6-8,0.8-12c0.2-3.9,0.4-7.9,0.3-11.8
		c0-3.7-0.5-7.3-0.6-11c-0.1-2.3,0-4.7-0.2-7c-0.2-2-0.9-4-0.8-5.9c0-3.5,0.4-6.9-1.4-10.2c-0.6-1.1-0.6-2.6-0.9-4
		c-0.2-0.9-0.1-1.9-0.3-2.8c-0.5-1.9-1.2-3.8-1.7-5.7c-0.2-0.9-0.2-1.8-0.5-2.7c-0.6-1.9-1.4,0.3-2-1.7c-0.9-2.9-0.7-6.1-3.2-8.3
		c-0.3-0.3-0.4-0.9-0.5-1.3C851.5,222.9,846.9,219.4,842.5,216z"/>
	<path d="M910.7,259.6c0.4,3.1,1.3,6.2,2,9.3c0.7,3,1.4,5.9,2,8.9c0.8,3.9,1.4,7.7,2.1,11.6c0.9,4.8,1.8,9.7,2.7,14.5
		c1,5.9,1.9,22.9,3,28.9c0.4,2.4,1.5,4.8,1.5,7.2c-0.1,3.7,2.1,6.7,2.3,10.4c1.7-0.2,2.4-0.5,2.3-2.3c0-1.8,1-3.5,1.5-5.3
		c0.5-1.7,0.8-3.4,1.3-5.1c0.5-1.5,1.1-2.9,1.7-4.4c0.4-0.9,1.2-2.1,0.9-2.7c-0.9-2.5,0.4-15.5,0.9-17.7c0.7-2.7,1.6-5.4,2.2-8.2
		c0.9-3.9,1.6-7.8,2.5-11.6c0.7-2.9,1.7-5.7,2.7-8.5c0.5-1.2,1.7-2.2,2-3.4c0.7-2.5,1.2-5,1.6-7.6c0.8-4.7,1.5-9.5,2.4-14.2
		c0.2-1.2,1.2-2.3,1.4-3.5c0.7-4.3,1.5-7.9,2.2-12.2c0.2-0.7,0.4-2.1,0.7-3.2c0,0,0.3-1.3,0.4-2c0.1-0.3,0.4-1.6,0.4-1.6
		c0.3-1.3,0.5-1.5,1-3.6c0.6-2.3,1.3-4.6,1.9-7c0.2-0.8,0.7-1.6,1-2.4c0.9-2.8,1.7-5.7,2.7-8.4c1.5-3.7,3.3-7.3,4.7-11.1
		c1.1-3.2,2.2-6.3,5-8.5c1.6-1.2,3.3-3,5-3c2.1,0,4.2,1.5,6.2,2.5c0.5,0.2,0.6,1.1,1.1,1.5c2.5,1.7,1.6,3.5,0.6,5.6
		c-1.9,4.3-3.5,8.7-5.1,13c-1.2,3.2-2.2,6.5-3.2,9.8c-0.3,0.9-0.1,2-0.3,3c-1.1,4.5-2.4,5-3.5,9.5c-0.8,3.5-1.5,7-2.2,10.4
		c-1,4.6-2.1,9.1-3.1,13.7c-0.8,3.7-1.5,7.5-2.5,11.1c-2,7.2-4.4,14.2-6.5,21.4c-1.5,5.4-2.7,10.9-4.1,16.3
		c-1.4,5.5-2.8,24-4.2,29.5c-1.1,4.3-2,6.7-3.3,11.1c-3.1,10.8-4.2,22-8.8,32.4c-1.3,3-3,5.9-5.2,8.3c-3.9,4.2-10.9,4.2-14,0.1
		c-1.9-2.5-3.8-5.1-3.1-8.9c0.4-2.4-0.9-5.1-1.3-7.6c-0.3-1.5-0.4-2.9-0.6-4.4c-1-6.7-1.9-13.5-3.1-20.2c-0.6-3-1.8-5.9-2.7-8.9
		c-0.1-0.2-0.1-0.5-0.2-0.7c-0.5-4.1-0.9-19.1-1.4-23.2c-0.9-6.5-1.9-13-2.9-19.5c-0.4-2.4-0.7-4.9-1.2-7.3c-0.8-3.1-1.9-6-2.6-9.1
		c-1-4.2-1.7-8.5-2.6-12.8c-0.4-1.9-1.1-3.7-1.6-5.5c-0.4-1.5-0.9-2.9-1.1-4.4c-0.5-4-0.7-7.9-1.3-11.9c-0.2-1.7-1.5-3.3-1.5-4.9
		c0-3.2-1.3-1.9-2-4.9c-1.6-6.4-3.1-12.9-4.5-19.4c-0.4-1.7-0.1-3.5-0.1-5.1c2.9-1.6,5.7-3.2,8.5-4.6c0.8-0.4,2.1-0.6,2.8-0.2
		c2.5,1.2,5.1,2.5,5.9,5.5c1.4,5.3,2.8,10.5,4,15.8c1.1,5,2.4,6.1,2.8,11.2c0.3,3,1.6,5.6,2,8.4"/>
	<path d="M660.9,294.5c2.5-1.5,5-1.9,7.5-2.2c1.5-0.2,2.9-0.4,4.4-0.7c2.8-0.5,5.6-1,8.4-1.6c2.9-0.6,5.8-1.2,8.7-1.9
		c1.6-0.4,3.1-1.2,4.8-1.3c2-0.2,3.2,1.3,3.3,3.4c0.2,3.8-1.9,6.4-4.3,8.7c-1.3,1.3-3.6,1.6-5.5,2.1c-6.1,1.5-12.3,3.1-18.4,4.3
		c-5.3,1-10.6,1.7-15.9,2.4c-3.6,0.5-3.9,0.7-3.8,4.2c0.1,5.6,0.1,11.2,0.4,16.7c0.5,7.1,1.4,14.2,2,21.3c0.1,0.9,0,1.9,0,2.8
		c0.3,4.1,0.8,8.2,1,12.4c0.1,2.1,0,4.3,0,6.4c0.1,2,0.1,4.1,0.5,6c0.2,1.3,1.2,2.1,2.8,1.7c4.7-1.1,9.5-2.3,14.3-3.1
		c3.7-0.7,7.4-0.9,11.2-1.3c3.4-0.4,6.8-0.8,10.1-1.3c3.3-0.6,6.6-1.4,10-2c4.1-0.8,7,2.5,6.3,6.5c-1,6.2-4.9,6.9-10.1,7.7
		c-5.1,0.8-10.3,1.3-15.5,1.9c-3.5,0.4-7.1,0.5-10.5,1.3c-6.1,1.3-12.1,3-18.1,4.7c-2.2,0.6-4.2,2.1-6.2,3.2
		c-2.8,1.5-5.6-0.1-8.4,0.2c-1.2-2.6-1.9-5.1-1.8-8c0.2-3.7-0.7-7.4-1.1-11.1c-0.6-5.2-1.3-10.4-1.6-15.7
		c-0.4-5.8-0.5-11.6-0.7-17.4c-0.3-6-0.6-12-1.1-18c-0.3-3.4-1-6.8-1.3-10.2c-0.1-1.4,0.5-2.9,0.5-4.3c-0.1-3.4-0.4-6.9-0.4-10.3
		c0-3.4,0.6-7,0-10.3c-0.4-2.4-0.7-4.7-0.6-7c0.1-1.6-0.1-3.2-0.2-4.8c-0.2-5.8-0.4-11.7-0.6-17.5c-0.1-4.4-0.2-8.8-0.5-13.3
		c-0.3-5.5-0.9-10.9-1.4-16.3c-0.5-5-1-9.9-1.5-14.9c-0.2-2.4,0.8-4,3.1-4.9c1.1-0.5,2.1-1.5,3.2-1.8c1.5-0.4,3.1-0.3,4.7-0.5
		c1.2-0.1,2.4,0,3.5-0.3c3.2-0.9,6.7-0.1,9.6-2.2c0.4-0.3,1.1-0.2,1.6-0.1c3,0.9,5.8,0.5,8.7-0.4c0.1,0,0.3-0.2,0.4-0.2
		c4.3,0,8.6,0,12.9,0c1.5,0,2.9-0.3,4.4-0.1c3.6,0.4,7.1,0.9,10.6,1.6c2.1,0.4,2.5,2.4,2.5,4c0,1.6-0.6,3.2-1.2,4.7
		c-0.6,1.4-1.6,2.2-3.2,3.1c-3.6,1.8-6.3-0.3-9.4-0.6c-0.9-0.1-1.9,0.1-2.9,0.2c-3,0.3-6.1,0.6-9.1,0.9c-3.5,0.4-7,0.6-10.4,1.1
		c-2.7,0.4-5.5,0.9-8.2,1.4c-1.4,0.2-2,1-1.9,2.5c0.3,5.5,0.6,11,0.8,16.5c0.1,2.3-0.3,4.7-0.2,7c0.2,5.9,0.6,11.8,0.8,17.7
		c0.1,1.6-0.1,3.1,0,4.7c0.2,4.2,0.6,8.3,0.8,12.5c0,0.4-0.2,0.9-0.2,1.4c-0.4,3.1,0.8,4.5,3.4,6.1c2.4,1.5,4.7,1.7,7.3,1.8
		C659.9,293.8,660.5,294.3,660.9,294.5z"/>
	<path d="M985.9,212.3c0.5-1.4,0.9-3.7,3.6-4.1c4-0.6,7.7-2.4,12-2c4,0.4,8.2-1.1,12.3-1.7c5.4-0.8,10.8-1.7,16.3-2.3
		c2-0.2,4.1,0.6,6.1,0.9c0.5,0.1,1,0.3,1.4,0.2c4-1.3,7.6,0.2,11,2c1.4,0.7,2.5,2.7,3,4.4c0.5,1.8-0.9,3.3-2.6,4.1
		c-1.9,1-3.8,2.4-5.9,2.8c-3,0.6-6.2,0.4-9.2,0.5c-2.2,0.1-4.5,0.3-6.7,0.4c-0.8,0-1.6-0.5-2.3-0.3c-6.8,1.3-13.6,2.8-20.5,4.1
		c-2,0.4-2.5,1.8-2.6,3.4c-0.4,7.5-0.7,11-0.8,18.5c-0.1,7.1,0,14.3,0,21.4c0,2.3,0,4.5,0,7.4c3.4-0.6,6.6-1.2,9.8-1.8
		c4.7-1,9.3-2.1,14-3.1c6-1.3,11.9-2.5,17.9-3.8c3.4-0.8,7,1.4,7.2,4.7c0.1,1.2-0.8,3-1.8,3.7c-2.8,2.1-5.6,4.4-8.8,5.5
		c-7.1,2.5-14.4,4.5-21.7,6.4c-5.3,1.4-10.7,2.5-16.1,3.7c-1.4,0.3-2,0.9-1.9,2.6c0.2,4.2-0.1,8.5,0,12.8c0.1,4.2,0.5,8.5,0.5,12.7
		c0.1,5.7-0.2,24.5,0,30.2c0.1,3.2-0.4,4.5-0.4,7.8c0,0.3,0.2,2.6,0.1,2.7c0.3,1,0.7,2.3,0.9,3.6c0.5,4.6,1.1,9.1,1.5,13.7
		c0.2,3,1.7,3.9,4.6,2.7c3.8-1.7,7.7-3.5,11.7-4.5c3.7-0.9,7.2-2,10.3-4.1c1.8-1.3,3.6-2.6,5.2-4.1c2.6-2.5,7-2,8.6,1.2
		c1.5,3,0.1,8.8-2.4,11.1c-5,4.7-11.5,6.6-17.7,8.8c-2.9,1.1-5.9,2.1-8.7,3.4c-4.7,2.1-9.2,4.6-13.9,6.6c-5.9,2.6-13.1-0.8-15.1-7
		c-0.5-1.4-1.5-2.7-1.5-4.1c0-4.5-1.2-9.1,0.9-13.5c0.3-0.6,0.1-1.4,0.1-2.1c-0.1-3.2-0.4-6.4-0.3-9.6c0.1-3.1-0.2-6.1-0.8-9.2
		c-0.4-2.2,0.5-4.6,0.8-6.8c0.2-1.2,0.4-2.5,0.3-3.7c-0.3-4.9-0.8-22.9-1.2-27.8c0-0.2,0-0.3,0-0.5c1.8-7.2,0.2-14.4,0.5-21.6
		c0.2-4.8,0.5-9.6,0.6-14.3c0.1-2.9-0.3-5.7-0.2-8.6c0-3.6,0.3-7.2,0.3-10.9c0.1-3.2,0.1-6.4,0.1-9.6c0-4,0.1-4,0-8
		c0-3.6-0.4-7.1-0.3-10.7c0.1-2.9,0.4-4.4,0.8-7.2c0.1-0.4,0.1-1.8,0.3-2.5C985.4,214.8,985.6,213.9,985.9,212.3z"/>
	<path d="M130.3,288.6c-1.1,1.1-2.5,2.6-2.7,5.2c-0.4,4.8-3.5,8.6-6.5,11.9c-3.5,3.9-7.5,7.3-12.5,9.7c-1.9,0.9-3.8,2.1-5.8,2.6
		c-3.3,0.8-6.7,1.2-10,1.4c-2.1,0.1-2.2,0.7-1.9,2.6c0.7,4.4,1,16.9,1.4,21.4c0.1,0.9,0.3,1.7,0.4,2.6c0.7,4.1,1.5,8.2,2.2,12.3
		c0.3,1.7,0.2,3.4,0.5,5c0.4,2.7,1.2,5.3,1.4,8c0.5,6.5,1.8,7.9,3.2,14.3c0.7,3.2,1.2,6.5,1.3,9.8c0,1.9-1,3.9-1.7,5.8
		c-0.9,2.5-3,2.3-5.1,2.1c-0.9-0.1-1.8,0.4-2.7,0.3c-3.3-0.5-6.4-4.8-6.8-8.5c-0.4-3.9-1.4-7.8-2-11.8c-0.7-4.5-1.2-4.1-1.7-8.7
		c-0.4-3.4-0.2-6.8-2.2-9.8c-0.3-0.4,0.3-1.3,0.2-1.9c-0.3-1.7-0.8-3.3-1-5c-0.4-2.8-0.6-5.6-0.9-8.4c-0.4-4-0.3-8.1-1.4-11.9
		c-1.2-4.5-1.2-17-1.6-21.5c-0.2-1.8-1.6-3.4-2.4-5.1c-0.7-1.4-1.8-2.9-1.8-4.4c0-2.2,0.9-4.4,1.3-6.7c0.2-1.1,0.5-2.2,0.4-3.2
		c-0.3-3.2-0.6-6.4-1.1-9.6c-0.2-1.7-0.9-3.4-1-5.2c-0.5-5.2-0.9-10.3-1.4-15.5c-0.6-5.1-0.6-10.5-2.1-15.3
		c-1.7-5.5-2.6-11.2-4.3-16.7c-0.6-1.9-1.4-3.9-1.1-5.7c0.3-2.1,1.3-4.7,2.8-6c2-1.7,4.8-2.1,7.6-0.9c1.2,0.5,2.8,0.7,4.1,0.5
		c3.7-0.7,7.5-1.2,10.9-2.6c4.8-2,8.6,0.4,12.6,2.1c0.3,0.1,0.5,0.4,0.8,0.5c7.5,2.2,12.2,7.9,15.9,14.1c3.6,6,6.4,12.4,9.1,18.9
		c1.9,4.5,3.4,9.3,4.4,14.1c0.7,3.6,0.3,7.4,0.5,11.1C129.7,283,130,285.4,130.3,288.6z M110,264.4c-1.5-6.8-5-12.8-8.2-18.8
		c-2-3.6-5.3-6.4-8-9.6c-2.5-3-5.7-3.3-9.1-2c-1.4,0.5-2.5,1.7-3.9,2.1c-1.8,0.6-1.8,1.7-1.4,3.1c0.5,1.8,1,3.6,1.3,5.4
		c1,6,2,12.1,2.9,18.2c0.3,1.9-0.6,4.4,0.2,5.8c1.4,2.3,1,4.5,1.2,6.8c0.5,5.9,1.6,11.8,2.2,17.6c0.2,2,1.1,3.8,0.9,6
		c-0.4,4.2,6.1,7.7,9.8,5.6c0.2-0.1,0.5-0.3,0.5-0.4c1.2-0.7,1.4-0.8,2.6-1.4c0.7,0.1,1.5-0.3,2.1-0.8c3.6-2.7,6.3-6.4,7.4-10.5
		c1.4-4.9,3.2-9.9,1.8-15.3c-0.1-0.2,0.1-0.5,0.1-0.7"/>
	<path d="M19.2,215.5c7.5,0.9,14.6,1.4,20.6,5.6c0.9,0.6,1.9,1.4,2.5,2.3c1.6,2.2,3.2,4.5,4.7,6.8c1.4,2.1,1.4,3.9-0.6,5.5
		c-1.8,1.5-3.8,2.6-5.9,3.7c-0.5,0.3-1.5,0-1.9-0.3c-1.7-1.4-3.6-2.6-4.9-4.4c-3.2-4.5-8-5.7-12.9-6.3c-4.5-0.5-5.7,1.2-4.9,5.8
		c0.4,2.3,0.4,4.7,1.1,7c1.2,3.8,2.1,7.7,4.8,10.9c2.2,2.6,3.5,5.9,5.8,8.4c2.4,2.7,3.7,5.9,5.4,8.9c2.3,3.8,4,8.1,6.9,11.4
		c2,2.2,1.9,4.9,3.6,7.1c2.4,3,4.2,6.5,6.2,9.9c0.7,1.1,0.8,2.6,1.6,3.5c2.4,3,3.9,6.4,4.9,10c0,0.2,0.1,0.3,0.2,0.4
		c3.3,3.5,3.6,8.5,5.7,12.5c1.4,2.6,2.1,13.6,2.8,16.5c1.1,4,1.8,8.1,2.8,12.1c1.2,4.6,2.6,9.1,3.6,13.7c0.4,1.9,0.3,3.9,0.5,5.9
		c0.2,2.1,0.5-0.8,0.6,1.3c0,1.7,0,3.5-0.5,5.1c-1.5,5.3-4.1,15-7.9,19c-2.9,3-6.2,5.4-10.4,6.4c-3.2,0.8-6.3,2.1-9.5,2.9
		c-1.2,0.3-2.6,0-3.9-0.3c-2.3-0.4-4.7-0.7-6.9-1.4c-2.4-0.8-4.5-2-6.9-2.9c-4.6-1.7-8.7-4.4-12.1-7.8c-4.1-4.1-8-8.6-8.9-14.8
		c-0.3-2.3-1.2-4.5-1.7-6.8c-0.7-3.7-0.7-7.6,0.7-11.1c0.7-1.9,2.8-3.3,4.5-4.7c0.8-0.8,2-1.8,3-1.7c2.6,0.3,5.2,0.8,7.6,1.9
		c0.8,0.4,1.1,2.5,1.2,3.8c0.1,1.5-0.5,3.1-0.3,4.6c0.5,3.2,1,6.4,2.1,9.4c0.8,2,2.5,3.7,3.9,5.5c1.5,2,2.9,4.2,4.6,6.1
		c2.7,2.9,6.2,4,10.1,4.3c0.7,0.1,1.5,0.6,2.2,0.7c1.1,0.2,2.3,0.4,3.4,0.2c5.3-0.8,7.6-4.3,9.1-9.3c1.5-4.8,0.7-9.4-0.2-14
		c-1.1-5.6-1.8-11.4-3.8-16.6c-1.3-3.4-1.5-7-3.4-10.4c-2.5-4.5-3.5-18-5.4-22.9c-1.2-2.9-3-5.6-4.5-8.4c-0.8-1.5-1.5-3.1-2.4-4.6
		c-2.1-3.6-4.4-7.1-6.6-10.7c-0.7-1.1-1-2.4-1.7-3.5c-1.1-2-2.5-3.8-3.6-5.8c-1.9-3.3-3.7-6.7-5.6-10c-1.6-2.8-3.4-5.4-5-8.1
		C10.8,262,6.9,256.3,4,250.1c-2.7-5.8-4.7-12.2-3.8-18.7c0.7-4.7,2.2-9.1,7.2-11.8c3.6-2,7.6-2.3,11.1-4.1
		C18.9,215.4,19.3,215.5,19.2,215.5z"/>
	<path d="M746.8,394c-0.3-6.3-0.8-12.7-1-19c-0.1-3.4,0.3-6.8,0.2-10.2c-0.1-4.1-0.7-8.1-0.7-12.2c0-3.7,0.5-7.5,0.7-11.2
		c0.1-1-0.1-2,0-3c0.2-4.8,0.6-9.5,0.7-14.3c0-2.2-0.7-4.5-0.6-6.7c0.1-2,0.9-3.9,1.2-5.8c0.3-2,0.4-4.1,0.4-6.1
		c0-4.1-0.1-8.2-0.2-12.3c0-0.4-0.1-0.8,0-1.2c1.3-5,0.6-10.1,0.4-15.1c-0.2-5.2-0.4-10.5-1.1-15.7c-0.9-6.1-0.7-12.3-1-18.4
		c-0.2-4.3-0.4-8.7-0.5-13c0-1.1,0.3-2.1,0.3-3.2c0.2-5.3,0.4-10.6,0.7-15.9c0.2-2.5,3.3-5,5.8-5.2c1.5-0.1,3.1-0.6,4.5-1.2
		c1.8-0.8,3.2-0.1,4.6,0.8c2.6,1.6,3.1,4.1,3,7c-0.5,7.7-0.9,15.3-1.3,23c-0.2,3.6-0.4,7.3-0.3,11c0.1,2.8,0.7,5.6,0.9,8.4
		c0.1,1.3-0.4,2.7-0.3,4.1c0.3,3.1,0.7,6.2,1.1,9.3c0.2,1.4,0.8,2.9,0.7,4.3c-0.2,6.7-0.7,13.3-0.9,20c-0.2,6.8-0.2,13.6-0.3,20.4
		c0,0.3,0.2,0.6,0.1,0.9c-0.4,4.5-1,8.9-1.3,13.4c-0.2,3.4-0.1,6.9-0.2,10.4c0,1.1-0.5,2.1-0.5,3.1c0.1,2.7,0.4,5.4,0.4,8.1
		c0,1.5-0.4,3-0.6,4.5c-0.1,0.6,0.1,1.2,0.1,1.8c0,1.6-0.1,3.2-0.1,4.8c0,0.7,0.2,1.4,0.3,2c0.1,0.5,0.5,1,0.5,1.5
		c0.2,5.1,0.4,10.2,0.5,15.4c0,2,0.8,2.6,2.7,2.3c5.1-0.9,10.4-0.9,15.2-2.5c4.1-1.3,8.8-1.3,12.3-4.4c1.5-1.4,6,0.2,6.9,2.2
		c1.8,4,0.3,7.6-4,9.9c-5.7,3-11.8,4.5-18.1,5.4c-3.6,0.5-7.4,0.6-10.9,1.6c-2.8,0.8-5.3,2.6-7.7,4.2c-3,1.9-6.2,2.5-9.5,2.1
		c-1.6-0.2-3.9-3.4-3.9-5C746.3,394,746.6,394,746.8,394z"/>
	<path d="M491.1,288.8c-0.2-1.7-0.3-3.1-0.5-4.5c-0.3-2.5-0.6-5-0.9-7.4c-0.3-2.6-0.6-5.2-0.9-7.7c-0.3-2.9-0.7-5.9-1-8.8
		c-0.4-3.7-0.8-7.5-1.3-11.2c-0.8-5.8-1.6-11.6-2.4-17.4c0-0.2-0.2-0.4-0.4-0.8c-2.6,0.5-5.1,1.1-7.7,1.6
		c-5.1,1.1-10.2,2.3-15.4,3.1c-1.1,0.2-3.2-1.3-3.5-2.3c-0.4-1.3,0.2-3.7,1.2-4.5c4.3-3.2,8.9-5.7,14.5-6.4c4.5-0.6,8.9-2.1,13.4-3
		c4.2-0.9,8.3-2,12.8-1.6c2.1,0.2,4.2-0.7,6.3-0.6c4.2,0.2,8.3,0.8,12.5,1c2,0.1,4.1,0,6.2-0.2c3.7-0.3,6,1.7,6.1,5.4
		c0,1.8,0.6,3.6-1.5,4.7c-2.4,1.2-4.5,3-7.5,2.7c-6.2-0.5-12.5-0.7-18.7-1c-1.4-0.1-1.5,0.8-1.3,1.9c1.1,9.2,2.2,18.4,3.2,27.6
		c0.6,5.4,0.6,10.9,1.2,16.3c0.4,3.8,1.4,7.6,1.8,11.4c0.8,8.1,1.3,16.1,1.9,24.2c0.4,4.8,0.8,9.6,1.1,14.4c0.2,2.8,0.1,5.7,0.2,8.5
		c0.1,3.4,0.1,6.8,0.3,10.2c0.3,4.3,0.9,8.6,1.2,12.9c0.3,5.5,0.3,11.1,0.7,16.6c0.2,3.3,1,6.5,1.4,9.7c0.2,1.7,0.4,3.4,0.7,5.1
		c0.3,2.1-0.3,3.7-2.1,4.8c-1.4,0.9-2.7,2.4-4.3,2.8c-1.8,0.5-3.9,0.1-5.9-0.1c-2.4-0.3-3.4-1.9-3.8-4.3c-0.8-5.1-2.2-10.1-2.7-15.2
		c-0.5-5.6-0.3-11.3-0.5-17c-0.3-5.1-0.9-10.2-1.2-15.4c-0.2-3.1,0-6.3-0.1-9.4c-0.1-1.5-0.6-2.9-0.7-4.4c-0.4-6-0.7-11.9-1-17.9
		c-0.2-4.8-0.3-9.5-0.6-14.3c-0.1-2.3-0.5-4.6-0.7-6.9C491,290.5,491.1,289.5,491.1,288.8z"/>
	<path d="M557.8,468.6c-1.8,0.3-3.5,0.8-5.2,0.9c-2.2,0.1-4.6,0.2-6.6-0.5c-4.3-1.4-4.1-4.8-1.1-7.3c2.1-1.8,5-3,7.7-3.7
		c4-1.1,4.3-0.9,4.3-4.7c0-4-0.5-8-0.8-12.1c3.1-4.4,7.6-6.2,13-5.7c0.8,0.1,1.7,1,2.4,1.6c2.8,2.7,1.9,6.2,1.8,9.5
		c-0.1,5.3,0.9,5.5,6,4.3c2-0.5,4-1.8,6-1.7c1.5,0.1,3.2,1.5,4.3,2.8c0.6,0.7,0.4,2.7-0.2,3.5c-1.8,2.5-4.2,4.2-7.4,4.9
		c-1.8,0.4-3.5,1.2-5.2,2c-1.7,0.7-2.6,1.8-2.5,4c0.4,5.6,0.5,11.3,0.9,17c0.1,2.1,0.6,4.2,1,6.2c0.1,0.5,0.6,1.3,1,1.3
		c0.6,0,1.3-0.4,1.7-0.8c2.5-3,8.6-4.1,11.4-1.5c1,0.9,0.7,3.4,0.5,5.1c-0.2,1.6-1.5,3-1.8,4.5c-0.5,2.3-2.1,3.7-3.9,4.7
		c-3.1,1.8-6.3,3.3-9.6,4.6c-3,1.2-9.2-1.2-11.3-3.8c-3.2-4-3.8-8.8-4.3-13.6c-0.6-5.5-0.6-11-1-16.5
		C558.6,472,558.1,470.5,557.8,468.6z"/>
	<path d="M499.2,490c-1.5-1.7-2.5-2.9-3.6-4.1c-3.6-3.7-7.6-7.1-10.9-11c-3.7-4.4-4.6-9.4-2.2-14.9c1.1-2.6,3-4.4,5-6.2
		c1.1-1,1.7-2.9,2.9-3.3c3.6-1.2,7.3-2,11-2.8c4.2-0.9,6.9,2.4,10,4.2c2.7,1.6,2.3,7.1-0.4,8.8c-3.3,2-6.8,3.4-10.9,1.8
		c-1.6-0.6-2.6,0.4-2.2,2c0.1,0.6,0.3,1.3,0.7,1.7c2.7,3.4,4.7,7.1,8.2,10c4.5,3.6,8.6,7.9,11.9,12.6c1.5,2.1,3.2,5.1,2.5,8.4
		c-0.6,3-1.3,5.6-3.5,7.9c-3,3-7,4.6-10.8,5.5c-3.6,0.9-7.9,0.9-11.6-0.7c-1.6-0.6-3-2-4.2-3.3c-1.3-1.3-2.7-2.8-3.1-4.5
		c-0.7-2.4-1.4-4.9,0.1-7.6c1.5-2.8,3.3-4.1,6.4-4C495.7,490.6,497.1,490.2,499.2,490z"/>
	<path d="M426.1,491.1c1.2-4.3,2-8.8,3.7-13c2-4.7,2.8-10.2,6.7-13.9c1.3-1.2,3.4-1.6,5.2-2.4c0.3-0.1,0.9,0.1,1.2,0
		c2.8-1.9,4.3,0.3,6.1,2.2c-1.4,3.9-2.8,7.9-4.1,12c-1.2,3.7-2.2,7.4-3.3,11.1c-1,3.4-2,6.9-3,10.3c-0.5,1.8-0.8,3.7-1.4,5.5
		c-0.8,2.3-1.4,4.7-2.7,6.7c-1,1.6-2.9,2.8-4.6,3.6c-1.7,0.8-3.4,0.9-5.3-0.7c-2.8-2.4-4.3-5.6-6.3-8.5c-0.5-0.8-1-1.6-1.6-2.3
		c-1.3-1.6-2.8-3-2.5-5.5c0.1-1.2-1.1-2.5-1.7-3.7c-3-6.2-6.1-12.4-9-18.7c-1.3-2.9-2.2-6.1-3.1-9.2c-0.2-0.5,0.2-1.4,0.6-1.9
		c2.1-2.8,4.9-4.5,8.5-4.3c2,0.1,3.3,0.9,4,3.2c1.1,3.7,2.7,7.2,4.1,10.8c1.5,3.7,3,7.4,4.5,11.1c1,2.5,2.2,5,3.3,7.5
		C425.5,491.2,425.8,491.2,426.1,491.1z"/>
	<path d="M475.6,490.8c0.9,3.5,1.6,7.1,2.8,10.5c0.9,2.6,0,4.5-1.7,6.1c-3.2,2.9-7,3.9-10.8,1.7c-1.5-0.9-2.5-3.3-3-5.3
		c-1.5-5.4-2.7-10.9-3.8-16.4c-0.9-4.4-1.5-8.9-2.4-13.3c-0.4-2-1.1-3.9-1.9-5.8c-1.1-2.7-0.2-5.3,2.4-6.7c2.3-1.2,4.7-2.3,7.2-3.1
		c3-1,5.2,0.6,5.9,3.7c0.5,2.4,0.8,4.9,1.3,7.3c0.8,3.8,1.8,7.5,2.6,11.3c0.7,3.2,1.2,6.5,1.7,9.8
		C475.8,490.7,475.7,490.8,475.6,490.8z"/>
	<path d="M540,468.5c0.7,4.9,1.4,9.9,2.1,14.8c0.5,3,1.2,5.9,1.8,8.9c0.5,2.7-2.3,7-4.9,7.8c-0.3,0.1-0.6,0.2-0.9,0.4
		c-5.7,3-9.7,0.9-10.7-5.4c-0.8-5.3-2-10.5-2.8-15.8c-0.5-3.3-0.4-6.6-1-9.8c-0.5-2.9-1.5-5.7-2.4-8.5c-0.6-2,0.4-4.2,2.1-5.5
		c2.8-2.1,6-2.3,9.3-2.6c2.3-0.2,5.6,3.1,5.9,5.5c0.3,2.4,0.8,4.7,1.2,7.1c0.2,1.1,0.4,2.1,0.5,3.2
		C540.2,468.5,540.1,468.5,540,468.5z"/>
	<path d="M755.9,684.7c-3.4-0.4-6.6,0.2-9-2.5c-1.3-1.5-1.4-4.5,0.2-5.6c3.2-2.4,6.5-4.5,10.3-5.6c1.9-0.5,6.6,1.1,7.3,2.9
		c0.3,0.7,0.4,1.7,0.2,2.4c-0.8,3.4-3.1,5.9-5.8,7.9C758.3,684.8,756.8,684.6,755.9,684.7z"/>
	<path d="M518.1,444.8c2.3-1.1,4.6-2.2,6.8-3.3c2.7-1.3,6.6,0.7,7,3.6c0.3,2.3-1.7,3.4-3.1,4c-1.8,0.9-4.2,1.3-6.2,0.9
		C519.2,449.4,519.3,449.1,518.1,444.8z"/>
	<path d="M460.9,456.4c-0.8,0-1.3,0.1-1.8,0c-1.8-0.3-3.8-1.1-3.6-3c0.1-1.3,1.9-2.6,3.2-3.5c1.1-0.8,2.6-1.1,3.9-1.5
		c1.6-0.6,3.4-0.4,4.1,1.1c0.7,1.4,0.6,3-0.9,4.4C464.3,455.3,462.9,456.8,460.9,456.4z"/>
	<path fill="#FFFFFF" d="M271.1,677.6c-0.1-2.5-0.5-7.2-0.6-11.8c0-1.7,0.4-3.3,0.6-5c0-0.4,0.1-0.8,0.1-1.1
		c-0.6-4.9,0.5-9.6,1.2-14.3c0.5-3.5,0.1-7.2,0.3-10.8c0.3-4.7,0.4-9.6,1.3-14.2c0.9-4.4,0.1-8.8,0.8-13.1c0.7-4.2,0.5-8.5,0.8-12.7
		c0.1-1.3,0.6-2.3,2.3-2.2c1.7,0.1,3.5-0.2,5.1-0.6c9-2.2,18.3-2.1,27.3-3.7c1.5-0.2,3-0.4,4.4-0.3c0.4,0,1.2,1,1.2,1.4
		c-0.4,2.4-1.1,4.8-1.7,7.2c-0.6,2.4-1,4.8-1.7,7.2c-1,3.5-2.1,7-3,10.6c-0.5,1.9-0.7,3.9-1,5.8c-1.2,6.4-2.3,12.9-5,19
		c-0.8,1.7-1.2,3.5-1.7,5.3c-2.3,8.8-7.3,16.6-10,25.3c-0.1,0.2-0.2,0.4-0.3,0.6c-1.3,2.4-2.4,5-4,7.3c-1.4,2.2-3.3,4-4.8,6.1
		c-1.2,1.7-1.9,3.6-3,5.3c-0.9,1.3-2.1,2.5-3.3,3.6c-0.3,0.3-1.6,0.2-1.7,0C273,688.3,271.2,684.2,271.1,677.6z"/>
	<path fill="#FFFFFF" d="M187.7,645c0.9-0.1,1.8,0,3.1,0c-0.6,3.6-1.2,7.1-1.7,10.6c-0.2,1.5,0,3,0,4.5c0,3,0.4,6.2-0.3,9.1
		c-0.9,3.8-2.5,7.5-3.9,11.2c-0.4,1-1,1.9-1.5,2.9c-0.2,0.3-0.2,0.9-0.5,1c-2.6,1.6-3.1,4.6-4.7,7c-1.6,2.3-4,3.5-6.3,3.2
		c-2.4-0.3-3.4-2.8-4.5-5.1c-2.1-4.2-1.7-8.6-1.7-12.8c0-5.4,1.1-10.8,3.9-15.6c1.2-2.1,2.5-4.1,3.7-6.2c1-1.8,1.9-3.7,3-5.5
		c1.2-2,2.4-4,3.6-5.9c0.7-1,2.9-0.8,3.8,0.3"/>
	<path fill="#FFFFFF" d="M580.8,646c-1.7,5.2-4.1,10.4-8.3,14.6c-3.2,3.2-6.7,5.9-9.3,9.7c-2.1,3.1-6.8,2.3-8.3-1.2
		c-1.7-3.7-3.6-7.5-4.3-11.4c-0.7-3.4-1.6-7.1,0.1-10.7c0.8-1.8,0.7-4,1.3-6c0.6-1.9,1.5-2.1,3.1-0.7c2.8,2.5,6.3,3.8,9.9,4.3
		C570.1,645.4,575.3,645.5,580.8,646z"/>
	<path fill="#FFFFFF" d="M583.5,622.1c0,1.8,0.1,3.7-0.1,5.6c-0.1,0.7-0.7,1.5-1.3,2c-2.8,2-6,3-9.3,3.4c-2.2,0.3-4-1.2-4.7-4
		c-1.3-5-1-10,1.4-14.5c1.3-2.5,3.3-4.7,5.4-6.6c1.6-1.4,3.2,0.4,4,1.5C581.7,613.1,582.8,617.4,583.5,622.1z"/>
	<path fill="#FFFFFF" d="M407,723.9c0.1,0.8,0.2,1.6,0.2,2.4c-0.3,5.8-0.4,11.6-1.2,17.3c-0.7,4.9-2.3,9.7-3.7,14.5
		c-0.3,1.1-1.2,2-2,2.8c-0.5,0.5-1.6,1.1-1.9,0.9c-0.7-0.5-1.4-1.5-1.3-2.2c0-2.6,0.3-5.2,0.7-7.7c1.2-7.9,3.1-15.6,6.3-22.9
		c0.8-1.7,1.4-3.5,2-5.3C406.4,723.8,406.7,723.8,407,723.9z"/>
	<path fill="#FFFFFF" d="M498.3,565.1c0,1.1,0.1,2.2,0,3.3c-0.6,7.8-1.7,15.5-5,22.6c-1.8,3.9-2.7,8.4-6.4,11.3
		c-0.6,0.5-0.6,1.7-1,2.5c-0.2,0.4-0.9,0.5-1.3,0.7c-0.1-0.5-0.4-1-0.3-1.4c2-7.7,3.9-15.5,6.2-23.2c1.1-3.6,3-7,4.5-10.5
		c0.8-1.8,1.6-3.7,2.5-5.5C497.7,565,498,565,498.3,565.1z"/>
	<path fill="#FFFFFF" d="M701.4,609.5c1.8,1.5,2.7,5.6,2,8.2c-2,6.7-5.3,12.6-10.4,17.4c-1.1,1.1-2.2,2.3-3.7,3.1
		C691.8,627.9,693.7,617.6,701.4,609.5z"/>
	<path fill="#FFFFFF" d="M392.5,262.8c0.5,5,1.1,10.1,1.7,15.1c0.8,5.8,1.9,11.5,2.4,17.4c0.6,8.6,0.8,17.2,1.2,25.9
		c0.3,6.7,0.6,13.4,1.2,20.1c0.4,5.3,1.2,6.5,1.9,11.8c0.4,3.5,0.8,7,1.4,10.5c0.3,2.1,1.1,4.2,1.5,6.3c0.8,4.5,1.6,9.1,2.3,13.6
		c0.3,1.9,1.6,2.2,2.9,1.7c2.3-0.9,4.6-2.1,6.7-3.4c0.8-0.5,1.1-1.8,1.8-2.4c2.2-1.6,4.3-3.3,5.2-6.1c0.3-1,0.7-2.1,1.3-3
		c4-5.9,5.4-8.6,6.9-15.4c0.6-2.9,0.9-5.8,1.5-8.7c0.9-4.9,2-9.8,2.6-14.8c0.8-6.6,1.5-13.3,1.8-20c0.2-4.6,0.1-9.2-0.3-13.7
		c-0.4-3.5-1.4-7-2.4-10.4c-1.3-4.3-2.6-8.6-4.5-12.6c-1.9-4.1-4.4-7.8-6.9-11.6c-2.9-4.5-5.6-9.4-9.2-13.3
		c-4-4.4-8.7-8.3-13.4-11.9c-2.7-2.1-6.2-3-9.8-2.1c-0.5,0.1-1.3,1.2-1.2,1.8c0.7,6.4,1.5,12.8,2.3,19.2"/>
	<path fill="#FFFFFF" d="M846.5,649.9c3.4,6,9.3,6.6,15.2,8c-0.8,1.7-1.3,3.5-2.3,5c-1.7,2.5-3.7,4.8-5.6,7.1
		c-2.7,3.1-4.9,3.2-7.5,0c-2.2-2.6-2.4-6-3.1-9.3c-0.7-3.1,1.7-5,1.3-7.7C844.4,652.2,845.6,651.3,846.5,649.9z"/>
	<path fill="#FFFFFF" d="M869.1,634.3c-0.4,2.2-1,5.4-1.6,8.5c-0.3,1.6-2.4,2.4-3.5,1.3c-1.4-1.4-2.5-3.1-3.7-4.7
		c-0.2-0.2-0.3-0.6-0.3-0.9c0.6-4.8,1-9.8,3.7-14c0.4-0.7,1.9-1.6,2.1-1.4c0.9,0.7,2,1.7,2.2,2.8
		C868.6,628.2,868.7,630.8,869.1,634.3z"/>
	<path fill="#FFFFFF" d="M183.4,259c-0.6,4-1.5,8.7-4.1,12.9c-1.6,2.6-3.1,5.4-5.2,7.6c-2.2,2.5-4.9,4.6-7.6,6.5
		c-2.4,1.7-5,3.3-6.9,5.7c-0.4,0.5-1.8,0.8-2.4,0.5c-0.5-0.2-0.5-1.5-0.7-2.3c-0.1-0.6,0.2-1.4,0-1.8c-1.9-3.3-1.1-7.3-2.2-10.6
		c-2.2-6.4-2.2-13-2.9-19.5c-0.3-3.2-0.4-6.4-0.8-9.6c-0.3-1.8-1.3-3.5-1.6-5.3c-0.5-3.9,3-7.7,6.6-9.1c5.6-2.1,9.5,0.9,13.7,3.4
		c2,1.2,4,2.4,5.7,3.9C180.1,245.5,182.9,252.2,183.4,259z"/>
	<path fill="#FFFFFF" d="M842.5,216c4.4,3.3,9,6.8,10.7,12.9c0.1,0.5,0.2,1,0.5,1.3c2.6,2.2,2.4,5.4,3.2,8.3c0.6,1.9,1.4-0.2,2,1.7
		c0.3,0.9,0.3,1.8,0.5,2.7c0.5,1.9,1.2,3.8,1.7,5.7c0.2,0.9,0.1,1.9,0.3,2.8c0.2,1.3,0.2,2.8,0.9,4c1.8,3.3,1.4,6.7,1.4,10.2
		c0,2,0.7,4,0.8,5.9c0.2,2.3,0,4.7,0.2,7c0.2,3.7,0.6,7.3,0.6,11c0.1,3.9-0.1,7.9-0.3,11.8c-0.2,4-0.6,8-0.8,12c0,0.6,0,1.3-0.2,1.8
		c-0.8,2.2-1.8,15.4-0.9,17.8c0.2,0.5-0.2,1.2-0.3,1.8c-1.2,5.4-2.4,10.8-3.5,16.3c-0.8,4-1.7,7.9-4,11.5c-1.4,2.2-1.4,5.3-2.4,7.9
		c-1,2.5-2,5.2-3.7,7.2c-1.6,2-3.2,4.3-6.2,5c-2.5,0.5-3.9-0.4-5.2-2.1c-2.3-3.1-4.6-6.2-5.8-10.1c-0.9-2.8-2.6-5.3-3.8-8
		c-0.5-1-0.8-2.2-1.1-3.3c-1.1-4.9-2.3-9.7-3.3-14.7c-0.8-4-1.2-8.1-1.7-12.2c-0.7-5.9-1.4-22.7-1.9-28.6c-0.2-2.9-0.1-5.9,0-8.8
		c0-3.6-0.1-7.2,0.1-10.8c0.2-4,0.8-8.1,1.1-12.1c0.2-3,0.1-6,0.3-9c0.2-2.5,0.4-5,0.8-7.5c0.7-4,2-7.9,2.3-11.9
		c0.5-6.1,3.7-7.2,5.8-12.7c0.8-2.1,2-4.2,3.4-6c1-1.4,2.7-2.3,3.9-3.6C839.5,219.7,840.8,218,842.5,216z"/>
</g>
<g id="PUVrrm_1_">
	<g>
		<path d="M476.9,133.1c9.5-11.2,17.1-21.5,22.3-33.3c5-11.4,8.7-23.6,15.1-34.2c7.4-12.2,12.3-18,26-14.8c9.1,2.1,13,9.3,15.8,17.1
			c1.8,5.1,2.4,10.6,3.7,16.5c4.5-1.5,8-4.5,11.1-8.2c1.5-1.7,3.1-4,5-4.6c2.2-0.6,5.5-0.4,7.1,0.9c1.4,1.1,2.2,4.6,1.6,6.5
			c-1.7,5.8-5.9,9.9-11,13c-2.4,1.5-4.8,3.4-7.4,4.1c-7.1,1.9-9.6,6.5-9.8,13.4c-0.3,10.1-6.3,17.8-12.4,24.9
			c-7.5,8.7-20.3,10.9-27.6,3.9c-3.9-3.7-5.4-10-7.8-15.1c-0.8-1.7-1-3.7-1.8-6.7c-3.4,4.7-6.1,8.6-9,12.3
			c-2.8,3.7-5.6,7.5-8.8,10.8c-8.2,8.6-22.5,6.5-28-3.8c-5.9-11-7-23.1-7.9-35.2c-0.4-5.3,0-10.7,0.3-16c0.2-3.6-1.1-4.7-4.6-4.5
			c-7.5,0.4-15,0.6-22.5,0.7c-6.4,0-10-2-9.7-5.5c0.4-5.3,4.9-6.5,8.9-7.1c3.7-0.6,7.6,0.1,11.4,0.2c0.7,0,1.3,0.1,2,0.1
			c15.2,1,17.2-1,18.7-16c0.9-8.5,3-16.8,4.5-25.2c0.5-2.7,2.2-4.7,4.9-3.3c2.7,1.3,6.7,2.3,6,6.8c-1.3,8.3-2.9,16.6-4.2,25
			c-1,6.1,2,8.6,7.6,6.3c6.1-2.5,12.1-5.4,18.1-8.3c3.2-1.5,6.6-2.8,9,0.5c2.3,3.2,0.3,6.4-2.5,8.1c-4.7,3-9.8,5.5-14.9,7.8
			c-4.8,2.2-10.1,3.6-14.8,5.9c-1.7,0.8-3.7,3.4-3.6,5c0.7,12.4,1.4,24.8,3,37.1C471.3,123.2,474.5,127.5,476.9,133.1z M523.9,99.4
			c-1.2,9.3,0.1,17.9,2.7,26.3c0.3,0.9,4.1,1.9,4.3,1.5c4.4-6.8,9.5-13.4,9-22.1c0-0.9-1.3-2.4-2.3-2.6
			C533.4,101.3,529.1,100.5,523.9,99.4z M536.5,67c-5.3,5.7-5.3,16.6-0.9,19.6c2.9,2,6.1,1.7,6.2-1.2C541.9,79,541.2,72.6,536.5,67z
			"/>
		<path fill="#FFFFFF" d="M523.9,99.4c5.2,1.1,9.5,1.9,13.8,3.1c1,0.3,2.2,1.7,2.3,2.6c0.5,8.7-4.6,15.3-9,22.1
			c-0.2,0.3-4-0.6-4.3-1.5C524,117.3,522.7,108.7,523.9,99.4z"/>
		<path fill="#FFFFFF" d="M536.5,67c4.7,5.6,5.5,12,5.3,18.4c-0.1,2.9-3.3,3.2-6.2,1.2C531.2,83.6,531.2,72.7,536.5,67z"/>
	</g>
</g>
</svg>
